<svg viewBox="0 0 745 746" fill="none" xmlns="http://www.w3.org/2000/svg">
<rect width="745" height="746"/>
<g id="Vector Logo">
<g id="drum">
<path id="path14" fill-rule="evenodd" clip-rule="evenodd" d="M372.5 46.5011C553.236 46.5011 699.752 192.971 699.752 373.649C699.752 554.33 553.236 700.799 372.5 700.799C191.763 700.799 45.249 554.33 45.249 373.649C45.249 192.971 191.763 46.5011 372.5 46.5011Z" fill="#666666"/>
<path id="path16" fill-rule="evenodd" clip-rule="evenodd" d="M372.501 73.9968C538.046 73.9968 672.248 208.156 672.248 373.649C672.248 539.144 538.046 673.302 372.501 673.302C206.953 673.302 72.7534 539.144 72.7534 373.649C72.7534 208.156 206.953 73.9968 372.501 73.9968Z" fill="white"/>
<path id="path18" fill-rule="evenodd" clip-rule="evenodd" d="M372.501 90.0498C529.177 90.0498 656.19 217.021 656.19 373.649C656.19 530.278 529.177 657.249 372.501 657.249C215.823 657.249 88.8115 530.278 88.8115 373.649C88.8115 217.021 215.823 90.0498 372.501 90.0498Z" fill="white"/>
<path id="path20" fill-rule="evenodd" clip-rule="evenodd" d="M372.501 142.145C500.397 142.145 604.077 245.794 604.077 373.649C604.077 501.505 500.397 605.154 372.501 605.154C244.603 605.154 140.923 501.505 140.923 373.649C140.923 245.794 244.603 142.145 372.501 142.145Z" fill="#4D4D4D"/>
<path id="path22" fill-rule="evenodd" clip-rule="evenodd" d="M372.5 216.037C459.575 216.037 530.163 286.603 530.163 373.649C530.163 460.696 459.575 531.262 372.5 531.262C285.426 531.262 214.838 460.696 214.838 373.649C214.838 286.603 285.426 216.037 372.5 216.037Z" fill="#1A1A1A"/>
<path id="path24" d="M372.501 82.0899C453.038 82.0899 525.951 114.725 578.73 167.485C631.509 220.248 664.152 293.139 664.152 373.649C664.152 454.162 631.509 527.051 578.73 579.813C525.951 632.576 453.038 665.209 372.501 665.209C291.963 665.209 219.05 632.576 166.272 579.813C113.493 527.051 80.8491 454.162 80.8491 373.649C80.8491 293.139 113.493 220.248 166.272 167.485C219.05 114.725 291.963 82.0899 372.501 82.0899ZM569.571 176.642C519.138 126.223 449.462 95.0373 372.501 95.0373C295.54 95.0373 225.863 126.223 175.429 176.642C124.995 227.06 93.8007 296.713 93.8007 373.649C93.8007 450.588 124.995 520.24 175.429 570.659C225.863 621.077 295.54 652.261 372.501 652.261C449.462 652.261 519.138 621.077 569.571 570.659C620.005 520.24 651.201 450.588 651.201 373.649C651.201 296.713 620.005 227.06 569.571 176.642Z" fill="#E61012"/>
<path id="path26" fill-rule="evenodd" clip-rule="evenodd" d="M372.5 17.0069C388.242 17.0069 401.004 29.764 401.004 45.5018C401.004 61.2396 388.242 73.9967 372.5 73.9967C356.758 73.9967 343.997 61.2396 343.997 45.5018C343.997 29.764 356.758 17.0069 372.5 17.0069Z" fill="#666666"/>
<path id="path28" fill-rule="evenodd" clip-rule="evenodd" d="M372.501 32.9387C379.442 32.9387 385.066 38.5632 385.066 45.502C385.066 52.4408 379.442 58.0654 372.501 58.0654C365.56 58.0654 359.933 52.4408 359.933 45.502C359.933 38.5632 365.56 32.9387 372.501 32.9387Z" fill="white"/>
<path id="path30" fill-rule="evenodd" clip-rule="evenodd" d="M372.5 671.801C388.242 671.801 401.004 684.558 401.004 700.295C401.004 716.032 388.242 728.789 372.5 728.789C356.758 728.789 343.997 716.032 343.997 700.295C343.997 684.558 356.758 671.801 372.5 671.801Z" fill="#666666"/>
<path id="path32" fill-rule="evenodd" clip-rule="evenodd" d="M372.501 687.732C379.442 687.732 385.066 693.357 385.066 700.295C385.066 707.233 379.442 712.857 372.501 712.857C365.56 712.857 359.933 707.233 359.933 700.295C359.933 693.357 365.56 687.732 372.501 687.732Z" fill="white"/>
<path id="path34" fill-rule="evenodd" clip-rule="evenodd" d="M624.232 122.245C635.363 133.373 635.363 151.414 624.232 162.542C613.101 173.671 595.054 173.671 583.921 162.542C572.79 151.414 572.79 133.373 583.921 122.245C595.054 111.117 613.101 111.117 624.232 122.245Z" fill="#666666"/>
<path id="path36" fill-rule="evenodd" clip-rule="evenodd" d="M612.963 133.511C617.871 138.416 617.871 146.371 612.963 151.277C608.056 156.182 600.099 156.182 595.19 151.277C590.284 146.371 590.284 138.416 595.19 133.511C600.099 128.604 608.056 128.604 612.963 133.511Z" fill="white"/>
<path id="path38" fill-rule="evenodd" clip-rule="evenodd" d="M161.078 585.253C172.21 596.38 172.21 614.421 161.078 625.551C149.947 636.678 131.9 636.678 120.767 625.551C109.636 614.421 109.636 596.38 120.767 585.253C131.9 574.125 149.947 574.125 161.078 585.253Z" fill="#666666"/>
<path id="path40" fill-rule="evenodd" clip-rule="evenodd" d="M149.809 596.518C154.717 601.425 154.717 609.378 149.809 614.285C144.901 619.19 136.945 619.19 132.037 614.285C127.13 609.378 127.13 601.425 132.037 596.518C136.945 591.612 144.901 591.612 149.809 596.518Z" fill="white"/>
<path id="path42" fill-rule="evenodd" clip-rule="evenodd" d="M624.232 625.551C613.101 636.678 595.054 636.678 583.921 625.551C572.79 614.421 572.79 596.38 583.921 585.253C595.054 574.125 613.101 574.125 624.232 585.253C635.363 596.38 635.363 614.421 624.232 625.551Z" fill="#666666"/>
<path id="path44" fill-rule="evenodd" clip-rule="evenodd" d="M612.963 614.285C608.056 619.19 600.099 619.19 595.19 614.285C590.284 609.378 590.284 601.425 595.19 596.518C600.099 591.612 608.056 591.612 612.963 596.518C617.871 601.425 617.871 609.378 612.963 614.285Z" fill="white"/>
<path id="path46" fill-rule="evenodd" clip-rule="evenodd" d="M161.078 162.542C149.947 173.669 131.9 173.669 120.767 162.542C109.636 151.414 109.636 133.373 120.767 122.243C131.9 111.117 149.947 111.117 161.078 122.243C172.21 133.373 172.21 151.414 161.078 162.542Z" fill="#666666"/>
<path id="path48" fill-rule="evenodd" clip-rule="evenodd" d="M149.809 151.277C144.901 156.182 136.945 156.182 132.037 151.277C127.13 146.371 127.13 138.416 132.037 133.509C136.945 128.604 144.901 128.604 149.809 133.509C154.717 138.416 154.717 146.371 149.809 151.277Z" fill="white"/>
<path id="path50" fill-rule="evenodd" clip-rule="evenodd" d="M728.504 373.897C728.504 389.635 715.743 402.392 700 402.392C684.257 402.392 671.496 389.635 671.496 373.897C671.496 358.161 684.257 345.402 700 345.402C715.743 345.402 728.504 358.161 728.504 373.897Z" fill="#666666"/>
<path id="path52" fill-rule="evenodd" clip-rule="evenodd" d="M712.567 373.897C712.567 380.836 706.941 386.46 700 386.46C693.059 386.46 687.432 380.836 687.432 373.897C687.432 366.958 693.059 361.335 700 361.335C706.941 361.335 712.567 366.958 712.567 373.897Z" fill="white"/>
<path id="path54" fill-rule="evenodd" clip-rule="evenodd" d="M73.5035 373.897C73.5035 389.635 60.7424 402.392 44.9996 402.392C29.2583 402.392 16.4963 389.635 16.4963 373.897C16.4963 358.161 29.2583 345.402 44.9996 345.402C60.7424 345.402 73.5035 358.161 73.5035 373.897" fill="#666666"/>
<path id="path56" fill-rule="evenodd" clip-rule="evenodd" d="M57.5669 373.897C57.5669 380.836 51.9406 386.46 44.9996 386.46C38.0603 386.46 32.4338 380.836 32.4338 373.897C32.4338 366.958 38.0603 361.335 44.9996 361.335C51.9406 361.335 57.5669 366.958 57.5669 373.897Z" fill="white"/>
</g>
<g id="coyote-drums">
<path id="path58" fill-rule="evenodd" clip-rule="evenodd" d="M511.31 173.642L564.539 155.674L568.571 175.221L569.068 193.187L581.839 190.315L569.449 206.929L571.377 276.668L517.44 288.879L555.955 281.532L552.277 338.167C558.075 346.204 559.26 356.132 558.232 365.954C555.429 392.708 533.084 405.176 508.94 409.649L492.78 412.647L527.08 446.928L406.169 442.523L424.721 422.742L403.217 428.065C397.738 434.329 390.942 438.852 383.397 442.045L400.994 452.652L282.895 480.581L293.309 457.79L244.633 464.698C236.055 469.884 226.665 473.714 217.073 476.575L139.209 499.788L167.043 449.52L166.718 381.383L150.116 352.914C135.623 340.322 132.161 317.82 132.04 298.994C131.866 272.039 138.283 243.484 162.508 227.966C181.913 215.533 203.414 212.21 225.725 217.873L245.902 222.996L243.465 227.389L386.025 198.964L381.166 202.837L410.587 196.46L410.509 193.832L511.656 166.67L511.31 173.642ZM435.891 284.454C434.73 286.126 433.489 287.762 432.176 289.361C426.385 296.409 419.645 302.187 411.965 306.42L428.231 301.757L435.927 286.621L435.891 284.454ZM384.811 314.201C373.549 314.727 362.758 311.738 353.341 304.464C351.329 302.908 349.48 301.235 347.801 299.449L347.619 306.061L357.991 321.888L384.811 314.201ZM287.801 326.01C281.455 332.328 274.158 337.294 265.921 340.622C267.597 342.255 269.154 344.044 270.59 345.987L279.852 343.512L287.801 326.01ZM188.647 308.088V277.148C186.927 282.523 186.708 290.01 186.761 294.011C186.796 296.706 187.254 304.672 188.647 308.088ZM221.034 416.167C226.923 411.43 228.794 404.308 228.749 394.961C228.737 392.791 228.405 385.749 226.881 383.86C225.566 383.363 222.179 383.827 220.68 384.098L221.034 416.167ZM254.155 285.342C253.721 285.767 253.342 286.244 253.024 286.675C251.883 288.22 251.178 289.762 251.03 291.61C251.466 291.182 251.849 290.702 252.167 290.276C253.32 288.721 254.001 287.189 254.155 285.342V285.342ZM393.362 254.389C392.931 254.813 392.551 255.289 392.233 255.722C391.092 257.267 390.387 258.809 390.239 260.657C390.675 260.229 391.058 259.749 391.375 259.321C392.53 257.767 393.209 256.236 393.362 254.389Z" fill="#E61012"/>
<path id="path60" fill-rule="evenodd" clip-rule="evenodd" d="M502.716 185.008L561.18 165.271L558.679 203.74L559.461 203.564L561.249 200.602L561.32 203.147L562.454 202.892L561.353 204.368L563.177 270.302L483.92 288.245L492.468 303.269C497.487 301.27 502.857 299.823 508.263 298.792L547.279 291.351L544.068 340.772C544.153 340.863 544.235 340.955 544.316 341.046C550.229 347.69 551.144 356.621 550.254 365.118C547.856 388.012 528.032 397.957 507.477 401.767L481.384 406.603L481.476 412.687L506.975 438.171L424.078 435.152L444.316 413.574L444.294 409.636L398.717 420.918C392.885 428.447 384.308 434.063 372.379 437.398C369.394 438.233 366.304 438.884 363.2 439.233L380.02 449.373L297.004 469.003L306.698 447.791L244.134 456.669L245.562 454.509C236.366 461.031 225.748 465.621 214.781 468.89L155.738 486.492L175.073 451.572L174.729 379.2L160.045 354.017L165.42 352.585C144.164 345.333 140.191 319.027 140.061 298.943C139.906 274.931 145.147 248.611 166.836 234.717C184.376 223.479 203.574 220.524 223.751 225.645L233.839 228.206L204.422 281.236L206.014 283.357C208.189 275.337 212.236 267.958 217.741 261.259C226.354 250.775 237.257 243.506 250.539 240.552C251.888 240.252 253.231 240.004 254.568 239.81L243.517 235.556L355.182 213.29L349.351 217.936L401.68 206.596L399.661 208.358C406.471 208.208 413.027 209.598 419.092 212.834L418.713 199.933L503.098 177.27L502.716 185.008ZM486.59 229.165L480.951 225.542L481.171 269.186L485.153 262.147L486.59 229.165ZM438.755 239.64C439.271 242.437 439.524 245.347 439.524 248.347C439.524 261.864 434.521 273.874 425.979 284.271C417.383 294.731 406.529 302.035 393.232 304.991C380.66 307.786 368.545 306.074 358.244 298.119C350.29 291.974 345.751 283.868 344.113 274.551L340.248 282.19L339.533 308.352L349.837 324.079L305.452 345.168C314.09 343.559 321.694 344.066 327.837 346.796L360.452 337.105L355.32 330.997L425.364 310.92L417.698 323.191L427.39 321.367L437.503 334.362L445.28 316.542L462.749 311.962L432.51 311.037L443.979 288.483L443.129 234.792L438.755 239.64ZM299.755 287.031C298.229 297.437 293.647 306.854 286.77 315.224C278.175 325.684 267.32 332.989 254.021 335.944C249.708 336.905 245.446 337.333 241.294 337.159C253.03 338.974 261.493 345.301 267.019 355.242L285.59 350.277L302.211 313.674L302.41 292.097L299.755 287.031ZM233.512 336.081C233.205 336.268 232.895 336.453 232.583 336.638C233.923 336.605 235.23 336.62 236.5 336.681C235.496 336.52 234.5 336.32 233.512 336.081V336.081ZM204.971 305.884C204.45 303.063 204.196 300.13 204.196 297.105C204.196 294.874 204.332 292.685 204.6 290.539L204.378 281.313L196.668 295.215V262.288C192.591 262.185 188.837 263.36 185.557 266.666C179.383 272.887 178.633 285.957 178.741 294.116C178.803 298.905 179.461 313.072 184.77 315.669C189.417 317.943 198.861 314.073 205.094 310.966L204.971 305.884ZM213.149 428.696L214.39 428.322C230.898 423.338 236.849 411.653 236.768 394.922C236.745 389.913 236.173 380.661 231.606 377.351C228.28 374.943 222.662 375.543 218.914 376.271L212.586 377.5L213.149 428.696ZM307.84 445.292L308.243 444.409L297.742 428.161L297.692 429.803L307.84 445.292ZM298.179 385.498L299.126 385.266C301.97 384.571 305.248 383.675 305.253 380.292C305.253 380.16 305.25 379.97 305.236 379.768C304.8 379.821 304.336 379.924 304.078 379.99L298.101 381.511L298.179 385.498ZM365.677 357.989L365.605 393.178C365.603 394.457 365.715 398.088 366.325 399.846C366.618 399.792 366.913 399.716 367.097 399.667C368.062 399.401 369.19 398.968 369.866 398.186C371.513 396.282 371.398 391.51 371.253 389.212L369.042 354.105L365.677 357.989ZM250.853 300.612C254.163 299.875 256.621 297.73 258.606 295.056C260.962 291.883 262.208 288.473 262.208 284.518C262.208 281.88 261.694 279.384 259.675 277.564C258.04 276.092 256.466 275.871 254.335 276.344C251.011 277.084 248.552 279.229 246.57 281.913C244.249 285.057 242.98 288.446 242.98 292.36C242.98 295.019 243.482 297.6 245.515 299.449C247.124 300.915 248.756 301.078 250.853 300.612V300.612ZM390.062 269.658C393.372 268.922 395.83 266.777 397.815 264.103C400.172 260.93 401.417 257.52 401.417 253.565C401.417 250.926 400.903 248.431 398.884 246.611C397.249 245.137 395.675 244.918 393.544 245.391C390.22 246.131 387.761 248.276 385.779 250.96C383.458 254.104 382.189 257.491 382.189 261.407C382.189 264.066 382.691 266.647 384.724 268.496C386.334 269.96 387.965 270.125 390.062 269.658V269.658ZM548.852 221.13L534.805 239.965L537.786 239.451L548.852 221.13Z" fill="white"/>
<g id="letters">
<path d="M174.066 356.664L218.604 344.737C250.171 335.279 266.765 349.673 268.386 387.919C270.008 426.114 251.919 450.503 214.12 461.087L174.066 473.107L184.859 453.194L184.478 375.053L174.066 356.664ZM206.9 438.875L218.3 435.406C237.048 429.681 246.371 415.75 246.269 393.615C246.168 371.481 237.073 362.424 218.984 366.447L206.139 368.913L206.9 438.875Z" fill="#231F20"/>
<path d="M259.95 364.031L303.728 352.273C324.654 346.738 335.852 354.133 337.321 374.459C338.842 394.722 323.539 408.113 291.415 414.634L290.883 431.798L296.888 441.204L262.078 446.065L270.742 432.696L270.362 382.42L259.95 364.031ZM291.643 394.657L302.284 392.057C310.391 390.099 314.444 385.799 314.444 379.157C314.495 372.451 310.796 369.667 303.348 370.805L291.263 373.881L291.643 394.657ZM291.415 400.701L315.052 392.954L344.314 436.652L360.046 446.464L312.316 457.778L318.549 443.86L291.415 400.701Z" fill="#231F20"/>
<path d="M331.393 352.815L368.863 341.604L358.754 353.503L358.678 392.438C358.374 404.389 362.225 409.266 370.231 407.071C378.287 404.813 381.631 398.465 380.263 388.028L377.451 342.029L370.459 333.465L408.385 322.541L400.784 334.973L401.772 382.467C404.103 407.634 393.919 423.391 371.219 429.735C348.57 436.121 337.017 425.561 336.561 398.057L336.257 359.206L331.393 352.815Z" fill="#231F20"/>
<path d="M429.058 368.694L427.994 393.137L440.61 402.397L398.428 412.866L407.169 398.469L407.473 350.532L393.868 334.331L424.877 328.526L440.23 348.774L451.783 321.687L482.412 313.631L472.76 323.561L474.128 416.426L487.428 430.126L442.738 428.232L453.075 416.982L452.771 362.565L441.598 388.011L429.058 368.694Z" fill="#231F20"/>
<path d="M510.229 305.032L538.959 299.578L536.906 331.869L525.506 323.352L510.305 326.031C502.097 327.493 497.613 330.073 496.853 333.77C496.093 337.468 499.31 339.477 506.505 339.797L514.181 339.335C535.108 336.81 544.583 345.029 542.607 363.994C541.036 379.703 529.002 389.695 506.505 393.971L475.648 399.665L476.636 361.617L489.86 375.8L506.505 374.123C514.713 372.713 519.198 369.925 519.958 365.761C520.718 361.596 517.5 359.328 510.305 358.956L502.629 359.495C481.703 362.021 472.228 353.802 474.204 334.837C475.825 319.221 487.834 309.286 510.229 305.032Z" fill="#231F20"/>
<path d="M221.298 234.144L204.273 265.484V256.533C194.089 253.764 185.855 255.62 179.572 262.103C173.289 268.533 170.249 279.795 170.452 295.888C170.655 311.981 174.151 321.764 180.94 325.235C187.73 328.655 198.345 326.269 212.786 318.076L212.558 308.164L229.583 331.465C205.92 346.067 186.438 351.8 171.136 348.665C155.834 345.477 148.107 329.449 147.955 300.579C147.752 271.669 155.403 252.169 170.908 242.08C186.413 231.99 203.209 229.345 221.298 234.144Z" fill="#231F20"/>
<path d="M251.7 330.906C240.654 333.362 231.229 331.488 223.426 325.284C215.674 319.069 211.798 310.331 211.798 299.07C211.798 287.862 215.674 277.426 223.426 267.763C231.229 258.089 240.654 252.023 251.7 249.567C262.695 247.122 272.068 249.008 279.821 255.223C287.624 261.427 291.525 270.134 291.525 281.342C291.525 292.603 287.624 303.07 279.821 312.744C272.068 322.407 262.695 328.461 251.7 330.906ZM252.004 310.835C256.817 309.764 260.947 306.874 264.392 302.164C267.838 297.403 269.56 292.194 269.56 286.538C269.56 280.933 267.838 276.543 264.392 273.365C260.947 270.136 256.817 269.056 252.004 270.126C247.139 271.208 242.984 274.13 239.539 278.891C236.144 283.59 234.447 288.741 234.447 294.346C234.447 300.002 236.144 304.45 239.539 307.691C242.984 310.868 247.139 311.916 252.004 310.835Z" fill="#231F20"/>
<path d="M315.162 235.534L308.93 240.578L319.571 260.629L331.883 239.366L315.162 235.534ZM309.69 292.481L285.217 244.527L271.612 239.068L323.523 228.771L316.758 234.245L371.937 222.286L352.784 239.31L331.427 282.433L330.591 313.52L337.203 323.88L298.746 342.395L309.462 318.296L309.69 292.481Z" fill="#231F20"/>
<path d="M390.482 300.047C379.436 302.503 370.012 300.629 362.209 294.425C354.456 288.209 350.58 279.471 350.58 268.211C350.58 257.002 354.456 246.567 362.209 236.903C370.012 227.229 379.436 221.164 390.482 218.708C401.477 216.263 410.851 218.148 418.603 224.364C426.406 230.568 430.308 239.274 430.308 250.483C430.308 261.743 426.406 272.21 418.603 281.885C410.851 291.548 401.477 297.602 390.482 300.047ZM390.786 279.975C395.599 278.905 399.729 276.015 403.174 271.305C406.62 266.543 408.343 261.334 408.343 255.678C408.343 250.074 406.62 245.683 403.174 242.505C399.729 239.276 395.599 238.196 390.786 239.267C385.922 240.348 381.767 243.27 378.321 248.032C374.926 252.73 373.229 257.882 373.229 263.486C373.229 269.142 374.926 273.59 378.321 276.831C381.767 280.009 385.922 281.057 390.786 279.975Z" fill="#231F20"/>
<path d="M471.578 215.075L471.958 288.779L482.674 308.113L444.216 306.701L450.829 293.4L449.689 219.397L445.736 220.198L426.811 241.608L425.823 207.269L493.162 189.104L491.414 225.531L474.694 214.46L471.578 215.075Z" fill="#231F20"/>
<path d="M513.759 254.11L541.197 249.41L552.369 230.502L553.357 267.021L482.978 282.982L491.718 267.183L494.151 209.9L487.538 199.539L550.773 178.006L548.721 210.297L541.197 202.63L514.595 210.024L513.759 254.11ZM507.755 225.089L541.501 217.507L526.224 238.417L502.511 242.678L507.755 225.089Z" fill="#231F20"/>
</g>
</g>
<g id="sticks">
<path id="path70" fill-rule="evenodd" clip-rule="evenodd" d="M183.302 554.286C175.564 553.502 168.377 549.462 164.697 541.957L163.745 540.014L163.667 537.849C163.231 525.599 172.784 516.552 184.074 514.014C220.163 504.872 256.272 495.8 292.396 486.797C324.507 478.793 356.725 470.614 388.98 463.225C418.116 456.553 447.376 450.256 476.59 443.935C497.089 439.499 517.594 435.093 538.11 430.73C548.848 428.447 559.607 426.118 570.376 423.935C572.988 419.515 577.297 416.19 582.496 414.888C592.953 412.269 603.663 418.686 606.284 429.138C607.324 433.293 606.938 437.485 605.44 441.197C608.595 443.661 611.027 447.108 612.209 451.243C615.175 461.635 609.129 472.506 598.735 475.473C593.586 476.943 588.19 476.215 583.717 473.696C573.299 477.187 562.815 480.549 552.373 483.939C532.425 490.416 512.461 496.849 492.491 503.254C464.029 512.383 435.539 521.556 406.971 530.339C375.34 540.063 343.349 549.082 311.535 558.203C275.756 568.46 239.956 578.649 204.137 588.769C193.137 592.252 180.229 589.088 174.52 578.334L173.504 576.421L173.357 574.261C172.789 565.922 176.993 558.832 183.302 554.286" fill="#E61012"/>
<path id="path72" fill-rule="evenodd" clip-rule="evenodd" d="M585.778 462.283C565.341 469.246 445.721 507.803 403.984 520.635C358.876 534.504 201.206 579.047 201.206 579.047C201.206 579.047 188.576 583.15 183.489 573.574C182.754 562.758 195.647 559.578 195.647 559.578C195.647 559.578 353.08 514.208 398.715 502.182C440.94 491.058 562.896 460.684 583.931 455.813C584.258 452.018 586.876 448.642 590.757 447.535C595.777 446.102 601.009 449.009 602.443 454.029C603.876 459.048 600.967 464.278 595.947 465.711C592.067 466.818 588.059 465.332 585.778 462.283Z" fill="white"/>
<path id="path74" fill-rule="evenodd" clip-rule="evenodd" d="M577.872 432.788C556.691 436.973 433.811 463.374 391.249 473.121C345.247 483.658 186.423 523.892 186.423 523.892C186.423 523.892 173.433 526.652 173.817 537.486C178.589 547.222 191.345 543.53 191.345 543.53C191.345 543.53 350.38 504.13 395.916 491.734C438.045 480.264 558.855 445.61 579.508 439.315C581.689 442.438 585.647 444.052 589.561 443.071C594.624 441.802 597.702 436.67 596.433 431.606C595.163 426.545 590.029 423.468 584.964 424.737C581.049 425.717 578.323 429.006 577.872 432.788" fill="white"/>
</g>
</g>
</svg>
