<svg viewBox="0 0 717 714" fill="none" xmlns="http://www.w3.org/2000/svg"><path fill-rule="evenodd" clip-rule="evenodd" d="M357.251 29.702c180.736 0 327.252 146.47 327.252 327.148 0 180.68-146.516 327.15-327.252 327.15C176.514 684 30 537.53 30 356.85 30 176.172 176.514 29.702 357.251 29.702Z" fill="#666"/><path fill-rule="evenodd" clip-rule="evenodd" d="M357.747 56.695c165.546 0 299.747 134.159 299.747 299.653C657.494 521.843 523.293 656 357.747 656 192.2 656 58 521.843 58 356.348 58 190.854 192.2 56.695 357.747 56.695Z" fill="#fff"/><path fill-rule="evenodd" clip-rule="evenodd" d="M357.689 72.801c156.676 0 283.689 126.971 283.689 283.6C641.378 513.029 514.365 640 357.689 640 201.011 640 74 513.029 74 356.401c0-156.629 127.011-283.6 283.689-283.6Z" fill="#fff"/><path fill-rule="evenodd" clip-rule="evenodd" d="M357.578 124.991c127.896 0 231.576 103.649 231.576 231.504C589.154 484.351 485.474 588 357.578 588 229.68 588 126 484.351 126 356.495c0-127.855 103.68-231.504 231.578-231.504Z" fill="#4D4D4D"/><path fill-rule="evenodd" clip-rule="evenodd" d="M357.662 198.775c87.075 0 157.663 70.566 157.663 157.612 0 87.047-70.588 157.613-157.663 157.613C270.588 514 200 443.434 200 356.387c0-87.046 70.588-157.612 157.662-157.612Z" fill="#1A1A1A"/><path d="M357.651 64.881c80.538 0 153.451 32.635 206.23 85.395 52.778 52.763 85.422 125.654 85.422 206.164 0 80.513-32.644 153.402-85.422 206.165C511.102 615.367 438.189 648 357.651 648c-80.537 0-153.45-32.633-206.229-85.395C98.644 509.842 66 436.953 66 356.44c0-80.51 32.644-153.401 85.422-206.164 52.779-52.76 125.692-85.395 206.229-85.395Zm197.07 94.552c-50.432-50.419-120.108-81.604-197.07-81.604-76.961 0-146.637 31.185-197.071 81.604-50.434 50.418-81.628 120.071-81.628 197.007 0 76.939 31.194 146.592 81.628 197.01 50.434 50.418 120.11 81.603 197.071 81.603 76.962 0 146.638-31.185 197.07-81.603 50.435-50.418 81.63-120.071 81.63-197.01 0-76.936-31.195-146.589-81.63-197.007Z" fill="#E61012"/><g fill-rule="evenodd" clip-rule="evenodd"><path d="M357.504.01c15.741 0 28.504 12.757 28.504 28.495 0 15.738-12.763 28.495-28.504 28.495C341.761 57 329 44.243 329 28.505 329 12.767 341.761.01 357.504.01Z" fill="#666"/><path d="M357.567 15.873c6.941 0 12.566 5.625 12.566 12.564S364.508 41 357.567 41C350.626 41 345 35.376 345 28.437c0-6.94 5.626-12.564 12.567-12.564Z" fill="#fff"/></g><g fill-rule="evenodd" clip-rule="evenodd"><path d="M357.504 657c15.741 0 28.504 12.757 28.504 28.495 0 15.736-12.763 28.493-28.504 28.493-15.743 0-28.504-12.757-28.504-28.493C329 669.757 341.761 657 357.504 657Z" fill="#666"/><path d="M357.567 672.875c6.941 0 12.566 5.625 12.566 12.563 0 6.937-5.625 12.562-12.566 12.562-6.941 0-12.567-5.625-12.567-12.562 0-6.938 5.626-12.563 12.567-12.563Z" fill="#fff"/></g><g fill-rule="evenodd" clip-rule="evenodd"><path d="M610.659 103.346c11.132 11.127 11.132 29.169 0 40.296-11.131 11.13-29.178 11.13-40.311 0-11.131-11.127-11.131-29.169 0-40.296 11.133-11.128 29.18-11.128 40.311 0Z" fill="#666"/><path d="M599.452 114.544c4.909 4.905 4.909 12.86 0 17.767-4.906 4.905-12.864 4.905-17.772 0-4.907-4.907-4.907-12.862 0-17.767 4.908-4.907 12.866-4.907 17.772 0Z" fill="#fff"/></g><g fill-rule="evenodd" clip-rule="evenodd"><path d="M145.659 569.346c11.132 11.127 11.132 29.169 0 40.298-11.131 11.128-29.178 11.128-40.311 0-11.13-11.129-11.13-29.171 0-40.298 11.133-11.128 29.18-11.128 40.311 0Z" fill="#666"/><path d="M134.452 580.555c4.908 4.907 4.908 12.86 0 17.766-4.908 4.905-12.864 4.905-17.772 0-4.907-4.906-4.907-12.859 0-17.766 4.908-4.907 12.864-4.907 17.772 0Z" fill="#fff"/></g><g fill-rule="evenodd" clip-rule="evenodd"><path d="M610.659 608.644c-11.131 11.128-29.178 11.128-40.311 0-11.131-11.129-11.131-29.171 0-40.298 11.133-11.128 29.18-11.128 40.311 0 11.132 11.127 11.132 29.169 0 40.298Z" fill="#666"/><path d="M599.452 597.311c-4.906 4.905-12.864 4.905-17.772 0-4.907-4.907-4.907-12.86 0-17.766 4.908-4.907 12.866-4.907 17.772 0 4.909 4.906 4.909 12.859 0 17.766Z" fill="#fff"/></g><g fill-rule="evenodd" clip-rule="evenodd"><path d="M145.659 144.643c-11.131 11.128-29.178 11.128-40.311 0-11.13-11.128-11.13-29.169 0-40.298 11.133-11.126 29.18-11.126 40.311 0 11.132 11.129 11.132 29.17 0 40.298Z" fill="#666"/><path d="M134.39 133.379c-4.908 4.905-12.864 4.905-17.772 0-4.907-4.907-4.907-12.862 0-17.769 4.908-4.905 12.864-4.905 17.772 0 4.908 4.907 4.908 12.862 0 17.769Z" fill="#fff"/></g><g fill-rule="evenodd" clip-rule="evenodd"><path d="M716.008 356.495c0 15.738-12.761 28.495-28.504 28.495-15.743 0-28.504-12.757-28.504-28.495C659 340.759 671.761 328 687.504 328c15.743 0 28.504 12.759 28.504 28.495Z" fill="#666"/><path d="M700.135 356.427c0 6.938-5.627 12.563-12.568 12.563S675 363.365 675 356.427c0-6.939 5.626-12.562 12.567-12.562s12.568 5.623 12.568 12.562Z" fill="#fff"/></g><g fill-rule="evenodd" clip-rule="evenodd"><path d="M57.007 356.505c0 15.738-12.761 28.495-28.504 28.495C12.762 385 0 372.243 0 356.505c0-15.736 12.762-28.495 28.503-28.495 15.743 0 28.504 12.759 28.504 28.495" fill="#666"/><path d="M41.133 356.437c0 6.938-5.626 12.563-12.567 12.563C21.626 369 16 363.375 16 356.437c0-6.939 5.626-12.562 12.566-12.562s12.567 5.623 12.567 12.562Z" fill="#fff"/></g><path fill-rule="evenodd" clip-rule="evenodd" d="M496.31 156.642 553.571 138 550 195l6.377 64.668-15.422 4.864-3.678 56.635c5.798 8.037 6.983 17.965 5.955 27.787-2.803 26.754-25.148 39.222-49.292 43.695l-16.16 2.998 34.3 34.281-120.911-4.405 18.552-19.781-21.504 5.323c-5.479 6.264-12.275 10.787-19.82 13.98l17.597 10.607-118.099 27.929 10.414-22.791-48.676 6.908c-8.578 5.186-17.968 9.016-27.56 11.877l-77.864 23.213 27.834-50.268-.325-68.137-16.602-28.469c-14.493-12.592-17.955-35.094-18.076-53.92-.174-26.955 6.243-55.51 30.468-71.028 19.405-12.433 40.906-15.756 63.217-10.093l20.177 5.123-2.437 4.393 142.56-28.425 24.484-5.132 101.147-27.162-.346 6.972Zm-75.419 110.812a76.439 76.439 0 0 1-3.715 4.907c-5.791 7.048-12.531 12.826-20.211 17.059l16.266-4.663 7.696-15.136-.036-2.167Zm-51.08 29.747c-11.262.526-22.053-2.463-31.47-9.737a47.314 47.314 0 0 1-5.54-5.015l-.182 6.612 10.372 15.827 26.82-7.687Zm-97.01 11.809c-6.346 6.318-13.643 11.284-21.88 14.612a43.915 43.915 0 0 1 4.669 5.365l9.262-2.475 7.949-17.502Zm-66.767 90.157c5.889-4.737 7.76-11.859 7.715-21.206-.012-2.17-.344-9.212-1.868-11.101-1.315-.497-4.702-.033-6.201.238l.354 32.069Z" fill="#E61012"/><path fill-rule="evenodd" clip-rule="evenodd" d="m487.716 168.008 58.464-19.737-3.18 47.563 5.177 57.468-79.257 17.943 8.548 15.024c5.019-1.999 10.389-3.446 15.795-4.477l39.016-7.441-3.211 49.421c.085.091.167.183.248.274 5.913 6.644 6.828 15.575 5.938 24.072-2.398 22.894-22.222 32.839-42.777 36.649l-26.093 4.836.092 6.084 25.499 25.484-82.897-3.019 20.238-21.578-.022-3.938-45.577 11.282c-5.832 7.529-14.409 13.145-26.338 16.48-2.985.835-6.075 1.486-9.179 1.835l16.82 10.14-83.016 19.63 9.694-21.212-62.564 8.878 1.428-2.16c-9.196 6.522-19.814 11.112-30.781 14.381l-59.043 17.602 19.335-34.92-.344-72.372-14.684-25.183 5.375-1.432c-21.256-7.252-25.229-33.558-25.359-53.642-.155-24.012 5.086-50.332 26.775-64.226 17.54-11.238 36.738-14.193 56.915-9.072l10.088 2.561-29.417 53.03 1.592 2.121c2.175-8.02 6.222-15.399 11.727-22.098 8.613-10.484 19.516-17.753 32.798-20.707 1.349-.3 2.692-.548 4.029-.742l-11.051-4.254 111.665-22.266-5.831 4.646 50.31-9.578c6.81-.15 13.366 1.24 19.431 4.476l-.38-12.901 84.386-22.663-.382 7.738Zm-16.126 44.157-5.639-3.623.22 43.644 3.982-7.039 1.437-32.982Zm-47.835 10.475c.516 2.797.769 5.707.769 8.706 0 13.518-5.003 25.528-13.545 35.925-8.596 10.46-19.449 17.764-32.747 20.72-12.572 2.795-24.687 1.083-34.988-6.872-7.954-6.145-12.493-14.251-14.131-23.568l-3.865 7.639-.715 26.162 10.304 15.727-44.385 21.089c8.638-1.609 16.242-1.102 22.385 1.628l32.615-9.691-5.132-6.108 70.044-20.077-7.666 12.271 9.692-1.824 10.113 12.995 7.777-17.82 17.469-4.58-30.239-.925 11.469-22.554-.85-53.691-4.374 4.848Zm-139 47.391c-1.526 10.406-6.108 19.824-12.985 28.193-8.595 10.46-19.45 17.765-32.749 20.72-4.313.961-8.575 1.389-12.727 1.215 11.736 1.815 20.199 8.142 25.725 18.083l18.571-4.965 16.621-36.603.199-21.577-2.655-5.066Zm-94.784 18.853c-.521-2.821-.775-5.754-.775-8.779 0-2.231 1.55-11.601 1.818-13.748l-1.636-2.044-7.71 13.902v-32.927c-4.077-.103-7.831 1.072-11.111 4.378-6.174 6.221-6.924 19.291-6.816 27.45.062 4.789.72 18.956 6.029 21.553 4.647 2.274 14.091-1.596 20.324-4.703l-.123-5.082Zm8.178 122.812 1.241-.374c16.508-4.984 22.459-16.669 22.378-33.4-.023-5.009-.595-14.261-5.162-17.571-3.326-2.408-8.944-1.808-12.692-1.08l-6.328 1.229.563 51.196Zm152.528-70.707-.072 35.189c-.002 1.279.11 4.91.72 6.668.293-.054.588-.13.772-.179.965-.266 2.093-.699 2.769-1.481 1.647-1.904 1.532-6.676 1.387-8.974l-2.211-35.107-3.365 3.884Zm-114.824-57.377c3.31-.737 5.768-2.882 7.753-5.556 2.356-3.173 3.602-6.583 3.602-10.538 0-2.638-.514-5.134-2.533-6.954-1.635-1.472-3.209-1.693-5.34-1.22-3.324.74-5.783 2.885-7.765 5.569-2.321 3.144-3.59 6.533-3.59 10.447 0 2.659.502 5.24 2.535 7.089 1.609 1.466 3.241 1.629 5.338 1.163Zm139.209-30.954c3.31-.736 5.768-2.881 7.753-5.555 2.357-3.173 3.602-6.583 3.602-10.538 0-2.639-.514-5.134-2.533-6.954-1.635-1.474-3.209-1.693-5.34-1.22-3.324.74-5.783 2.885-7.765 5.569-2.321 3.144-3.59 6.531-3.59 10.447 0 2.659.502 5.24 2.535 7.089 1.61 1.464 3.241 1.629 5.338 1.162Z" fill="#fff"/><g fill="#231F20"><path d="m159.066 339.664 44.538-11.927c31.567-9.458 48.161 4.936 49.782 43.182 1.622 38.195-16.467 62.584-54.266 73.168l-40.054 12.02 10.793-19.913-.381-78.141-10.412-18.389Zm32.834 82.211 11.4-3.469c18.748-5.725 28.071-19.656 27.969-41.791-.101-22.134-9.196-31.191-27.285-27.168l-12.845 2.466.761 69.962Z"/><path d="m244.95 347.031 43.778-11.758c20.926-5.535 32.124 1.86 33.593 22.186 1.521 20.263-13.782 33.654-45.906 40.175l-.532 17.164 6.005 9.406-34.81 4.861 8.664-13.369-.38-50.276-10.412-18.389Zm31.693 30.626 10.641-2.6c8.107-1.958 12.16-6.258 12.16-12.9.051-6.706-3.648-9.49-11.096-8.352l-12.085 3.076.38 20.776Zm-.228 6.044 23.637-7.747 29.262 43.698 15.732 9.812-47.73 11.314 6.233-13.918-27.134-43.159Z"/><path d="m316.393 335.815 37.47-11.211-10.109 11.899-.076 38.935c-.304 11.951 3.547 16.828 11.553 14.633 8.056-2.258 11.4-8.606 10.032-19.043l-2.812-45.999-6.992-8.564 37.926-10.924-7.601 12.432.988 47.494c2.331 25.167-7.853 40.924-30.553 47.268-22.649 6.386-34.202-4.174-34.658-31.678l-.304-38.851-4.864-6.391Z"/><path d="m414.058 351.694-1.064 24.443 12.616 9.26-42.182 10.469 8.741-14.397.304-47.937-13.605-16.201 31.009-5.805 15.353 20.248 11.553-27.087 30.629-8.056-9.652 9.93 1.368 92.865 13.3 13.7-44.69-1.894 10.337-11.25-.304-54.417-11.173 25.446-12.54-19.317Z"/><path d="m495.229 288.032 28.73-5.454-2.053 32.291-11.4-8.517-15.201 2.679c-8.208 1.462-12.692 4.042-13.452 7.739-.76 3.698 2.457 5.707 9.652 6.027l7.676-.462c20.927-2.525 30.402 5.694 28.426 24.659-1.571 15.709-13.605 25.701-36.102 29.977l-30.857 5.694.988-38.048L474.86 358.8l16.645-1.677c8.208-1.41 12.693-4.198 13.453-8.362.76-4.165-2.458-6.433-9.653-6.805l-7.676.539c-20.926 2.526-30.401-5.693-28.425-24.658 1.621-15.616 13.63-25.551 36.025-29.805ZM206.298 217.144l-17.025 31.34v-8.951c-10.184-2.769-18.418-.913-24.701 5.57-6.283 6.43-9.323 17.692-9.12 33.785.203 16.093 3.699 25.876 10.488 29.347 6.79 3.42 17.405 1.034 31.846-7.159l-.228-9.912 17.025 23.301c-23.663 14.602-43.145 20.335-58.447 17.2-15.302-3.188-23.029-19.216-23.181-48.086-.203-28.91 7.448-48.41 22.953-58.499 15.505-10.09 32.301-12.735 50.39-7.936Z"/><path d="M236.7 313.906c-11.046 2.456-20.471.582-28.274-5.622-7.752-6.215-11.628-14.953-11.628-26.214 0-11.208 3.876-21.644 11.628-31.307 7.803-9.674 17.228-15.74 28.274-18.196 10.995-2.445 20.368-.559 28.121 5.656 7.803 6.204 11.704 14.911 11.704 26.119 0 11.261-3.901 21.728-11.704 31.402-7.753 9.663-17.126 15.717-28.121 18.162Zm.304-20.071c4.813-1.071 8.943-3.961 12.388-8.671 3.446-4.761 5.168-9.97 5.168-15.626 0-5.605-1.722-9.995-5.168-13.173-3.445-3.229-7.575-4.309-12.388-3.239-4.865 1.082-9.02 4.004-12.465 8.765-3.395 4.699-5.092 9.85-5.092 15.455 0 5.656 1.697 10.104 5.092 13.345 3.445 3.177 7.6 4.225 12.465 3.144Z"/><path d="m300.162 218.534-6.232 5.044 10.641 20.051 12.312-21.263-16.721-3.832Zm-5.472 56.947-24.473-47.954-13.605-5.459 51.911-10.297-6.765 5.474 55.179-11.959-19.153 17.024-21.357 43.123-.836 31.087 6.612 10.36-38.457 18.515 10.716-24.099.228-25.815Z"/><path d="M375.482 283.047c-11.046 2.456-20.47.582-28.273-5.622-7.753-6.216-11.629-14.954-11.629-26.214 0-11.209 3.876-21.644 11.629-31.308 7.803-9.674 17.227-15.739 28.273-18.195 10.995-2.445 20.369-.56 28.121 5.656 7.803 6.204 11.705 14.91 11.705 26.119 0 11.26-3.902 21.727-11.705 31.402-7.752 9.663-17.126 15.717-28.121 18.162Zm.304-20.072c4.813-1.07 8.943-3.96 12.388-8.67 3.446-4.762 5.169-9.971 5.169-15.627 0-5.604-1.723-9.995-5.169-13.173-3.445-3.229-7.575-4.309-12.388-3.238-4.864 1.081-9.019 4.003-12.465 8.765-3.395 4.698-5.092 9.85-5.092 15.454 0 5.656 1.697 10.104 5.092 13.345 3.446 3.178 7.601 4.226 12.465 3.144Z"/><path d="m456.578 198.075.38 73.704 10.716 19.334-38.458-1.412 6.613-13.301-1.14-74.003-3.953.801-18.925 21.41-.988-34.339 67.339-18.165-1.748 36.427-16.72-11.071-3.116.615Z"/><path d="m498.759 237.11 27.438-4.7 11.172-18.908.988 36.519-70.379 15.961 8.74-15.799 2.433-57.283-6.613-10.361 63.235-21.533-2.052 32.291-7.524-7.667-26.602 7.394-.836 44.086Zm-6.004-29.021 33.746-7.582-15.277 20.91-23.713 4.261 5.244-17.589Z"/></g><g fill-rule="evenodd" clip-rule="evenodd"><path d="M168.302 537.286c-7.738-.784-14.925-4.824-18.605-12.329l-.952-1.943-.078-2.165c-.436-12.25 9.117-21.297 20.407-23.835a29009.213 29009.213 0 0 1 108.322-27.217c32.111-8.004 64.329-16.183 96.584-23.572 29.136-6.672 58.396-12.969 87.61-19.29 20.499-4.436 41.004-8.842 61.52-13.205 10.738-2.283 21.497-4.612 32.266-6.795a19.601 19.601 0 0 1 12.12-9.047c10.457-2.619 21.167 3.798 23.788 14.25a19.483 19.483 0 0 1-.844 12.059 19.51 19.51 0 0 1 6.769 10.046c2.966 10.392-3.08 21.263-13.474 24.23a19.622 19.622 0 0 1-15.018-1.777c-10.418 3.491-20.902 6.853-31.344 10.243a17530.456 17530.456 0 0 1-59.882 19.315c-28.462 9.129-56.952 18.302-85.52 27.085-31.631 9.724-63.622 18.743-95.436 27.864a29122.08 29122.08 0 0 1-107.398 30.566c-11 3.483-23.908.319-29.617-10.435l-1.016-1.913-.147-2.16c-.568-8.339 3.636-15.429 9.945-19.975" fill="#E61012"/><path d="M570.778 445.283c-20.437 6.963-140.057 45.52-181.794 58.352-45.108 13.869-202.778 58.412-202.778 58.412s-12.63 4.103-17.717-5.473c-.735-10.816 12.158-13.996 12.158-13.996s157.433-45.37 203.068-57.396c42.225-11.124 164.181-41.498 185.216-46.369a9.453 9.453 0 0 1 6.826-8.278c5.02-1.433 10.252 1.474 11.686 6.494 1.433 5.019-1.476 10.249-6.496 11.682a9.461 9.461 0 0 1-10.169-3.428ZM562.872 415.788c-21.181 4.185-144.061 30.586-186.623 40.333-46.002 10.537-204.826 50.771-204.826 50.771s-12.99 2.76-12.606 13.594c4.772 9.736 17.528 6.044 17.528 6.044s159.035-39.4 204.571-51.796c42.129-11.47 162.939-46.124 183.592-52.419a9.458 9.458 0 0 0 10.053 3.756c5.063-1.269 8.141-6.401 6.872-11.465-1.27-5.061-6.404-8.138-11.469-6.869a9.453 9.453 0 0 0-7.092 8.051" fill="#fff"/></g></svg>
