<svg xmlns="http://www.w3.org/2000/svg" viewBox="48 48 416 416"><path fill="#FFFFFF" d="M341.205 197.143H460.93v183.794c0 44.77-36.292 81.062-81.062 81.062H132.133c-44.77 0-81.062-36.294-81.062-81.063V197.143h119.19c-12.2 17.14-19.4 38.087-19.4 60.73 0 57.918 46.954 104.87 104.874 104.87 57.918 0 104.872-46.952 104.872-104.87 0-22.644-7.202-43.59-19.4-60.73zm119.725-66.08V184.3H330.447c-19.022-19.314-45.465-31.3-74.714-31.3-29.25 0-55.693 11.985-74.714 31.3H51.07v-53.238c0-27.322 13.532-51.47 34.245-66.154v87.29h16.62v-96.36c3.77-1.517 7.68-2.753 11.704-3.692v100.052h16.62V50.048c.625-.016 1.245-.048 1.873-.048h9.598v102.196h16.62V50H379.87c44.77 0 81.062 36.292 81.062 81.062zm-37.05-34.166c0-7.18-5.823-13.002-13.004-13.002h-43.82c-7.184 0-13.004 5.82-13.004 13.002v44.785c0 7.18 5.82 13.002 13.003 13.002h43.82c7.182 0 13.004-5.82 13.004-13.002V96.897zM174.937 257.872c0-24.188 10.698-45.91 27.593-60.73 5.927-5.196 12.614-9.538 19.876-12.84 10.17-4.626 21.447-7.225 33.327-7.225 11.88 0 23.158 2.6 33.326 7.224 7.263 3.304 13.95 7.646 19.876 12.843 16.895 14.82 27.592 36.542 27.592 60.73 0 44.55-36.243 80.793-80.794 80.793-44.55 0-80.796-36.244-80.796-80.794zm21.348 0c0 32.98 26.735 59.712 59.714 59.712 32.98 0 59.713-26.732 59.713-59.712 0-32.98-26.732-59.713-59.713-59.713-32.98 0-59.714 26.732-59.714 59.712z"/></svg>