<svg width="2280" height="1335" fill="none" xmlns="http://www.w3.org/2000/svg"><path fill-rule="evenodd" clip-rule="evenodd" d="M0 0h2280v1335H0V0Z" fill="#fff"/><path fill-rule="evenodd" clip-rule="evenodd" d="M387.832 1286.38c0 28.17 22.256 45.82 58.908 45.82 37.963 0 59.57-17.65 59.57-49.09v-83.14c0-13.1 1.959-16.37 13.748-16.37h7.198v-3.93h-.661c-8.508 0-17.016.66-25.524.66-7.86 0-15.707-.66-24.228-.66v3.93h5.24c11.789 0 13.748 3.27 13.748 16.37v87.07c0 26.84-13.748 40.61-41.244 40.61-30.777 0-47.794-15.08-47.794-43.22v-84.46c0-13.1 2.62-16.37 13.748-16.37h7.198v-3.93c-9.818 0-19.636.66-29.454.66-9.818 0-19.636-.66-29.454-.66v3.93h5.24c11.789 0 13.748 3.27 13.748 16.37v86.41h.013Zm208.826 23.57c0 9.17-6.537 15.71-15.707 15.71h-5.239v4.59c12.438-.66 21.607-1.32 25.537-1.32 3.268 0 12.438.66 26.186 1.32v-4.59h-8.508c-11.128 0-16.368-4.59-16.368-15.04l-1.958-107.38 110.632 128.96h2.619l-1.958-136.16c0-8.51 5.227-12.44 14.397-12.44h4.578v-3.93c-7.847 0-15.707.66-23.566.66-7.86 0-16.368-.66-24.876-.66v3.93h5.24c13.086 0 18.326 5.24 18.326 17.68l1.31 97.53-102.773-119.14c-3.93 0-14.396.66-17.016.66-5.24 0-11.128-.66-16.368-.66h-.648v3.93c10.479 0 13.086 1.33 23.566 13.1l2.594 113.25Zm197.049 0c0 13.1-2.62 15.71-13.748 15.71h-7.198v4.59c9.801-.77 19.624-1.21 29.454-1.32 9.819 0 19.637.66 29.455 1.32v-4.59h-5.24c-11.128 0-13.748-2.61-13.748-15.71v-109.98c0-13.1 2.62-16.37 13.748-16.37h7.198v-3.93c-9.818 0-19.636.66-29.454.66-9.818 0-19.636-.66-29.454-.66v3.93h5.239c11.128 0 13.748 3.27 13.748 16.37v109.98Zm206.207-111.28c3.926-11.14 8.506-15.07 17.016-15.07h5.23v-3.93c-7.2 0-19.64.66-21.6.66-1.969 0-14.407-.66-22.254-.66v3.93h5.888c7.198 0 11.128 2.64 11.128 7.2 0 3.3-.648 6.56-1.958 9.83l-36.653 104.75-42.554-110.62c-.648-1.97-1.309-3.96-1.309-5.24 0-5.9 8.508-5.9 15.706-5.9v-3.93c-9.17 0-22.256.66-26.835.66-3.268 0-17.677-.66-26.847-.66v3.93c9.818 0 15.719 0 21.608 14.41l51.062 134.18h5.888l46.484-133.54Zm171.516 102.78h-3.93c-11.12 18.97-16.37 22.9-30.12 22.9h-29.45c-9.17 0-12.44-3.27-12.44-12.44v-58.89h34.69c11.13 0 17.02 6.53 17.02 20.28h3.93v-41.89h-3.93c-.66 12.44-4.59 17.02-14.4 17.02h-37.31v-62.86h39.27c16.37 0 20.96 4.6 22.27 23.56h3.93l-.66-29.46c-15.72 0-30.13.66-45.18.66-19.63 0-38.62-.66-57.59-.66v3.93h5.24c11.12 0 13.08 3.27 13.08 16.37v109.98c0 13.1-1.96 15.71-13.08 15.71h-5.24v4.59c13.08 0 51.06-1.32 54.33-1.32 11.12 0 32.07.66 48.45 1.32l11.12-28.8Zm132.88 5.24c13.1 20.94 15.71 25.51 32.73 25.51 8.5 0 19-1.3 25.53-2.61v-3.27h-8.5c-8.51 0-15.05-3.27-22.27-13.1-9.56-13.84-18.94-27.81-28.15-41.89l-12.44-20.28c20.29-12.44 28.15-22.91 28.15-37.32 0-22.93-20.29-37.31-52.36-37.31-12.44 0-35.37 1.32-52.36 3.27v3.93h5.21c11.78 0 13.77 3.26 13.77 16.36v109.99c0 13.1-1.98 15.7-13.77 15.7h-4.59v4.6c10.24-.79 20.51-1.23 30.78-1.33 9.17 0 18.34.66 28.15 1.33v-4.6h-7.85c-11.12 0-13.76-2.6-13.76-15.7v-53.02c1.97 0 9.17-.66 11.14-.66 8.51 0 11.11 1.94 11.11 3.26 1.98 2.61 15.05 23.56 22.27 35.35l7.21 11.79ZM1252.59 1181c3.93-.67 7.87-1.33 11.14-1.33 21.61 0 34.05 15.07 34.05 39.29 0 22.9-9.83 33.38-32.1 33.38-3.93 0-7.85-.66-13.1-1.32V1181h.01Zm235.03 29.45-.67-30.78h-1.94c-1.97.66-3.96 1.33-5.24 1.33-2.63 0-5.24-.67-10.49-1.33-9.15-1.94-15.05-2.6-21.59-2.6-27.5 0-46.48 15.04-46.48 37.97 0 22.24 16.37 32.08 42.53 45.16 28.17 13.74 36.02 22.25 36.02 36.65 0 18.32-15.07 30.78-37.98 30.78-20.95 0-34.71-9.83-41.89-30.11l-3.93.66 5.87 32.07h2.64c1.32-1.32 4.59-1.97 6.53-1.97 1.97 0 4.59.66 8.51 1.32 7.52 1.74 15.21 2.61 22.93 2.61 30.12 0 51.7-18.97 51.7-44.51 0-26.82-22.91-37.32-41.89-46.49-27.49-12.43-36.66-21.58-36.66-34.68 0-15.07 13.77-25.53 34.05-25.53 21.61 0 33.38 10.46 34.71 29.45h3.27Zm72.64 99.5c0 13.1-2.61 15.71-13.74 15.71h-7.22v4.59c10.49-.66 19.66-1.32 30.12-1.32 9.83 0 19.63.66 29.45 1.32v-4.59h-5.88c-11.14 0-13.09-2.61-13.09-15.71v-109.98c0-13.1 2.6-16.37 13.73-16.37h7.22v-3.93c-10.49 0-19.66.66-30.11.66-9.83 0-19.64-.66-29.46-.66v3.93h5.88c11.14 0 13.1 3.27 13.1 16.37v109.98Zm141.41 0c0 13.1-2.61 15.71-13.74 15.71h-7.22v4.59c9.83-.66 19.66-1.32 29.45-1.32 9.83 0 19.67.66 29.46 1.32v-4.59h-5.24c-11.12 0-13.74-2.61-13.74-15.71v-123.08h39.92c11.12 0 14.41 2.63 15.71 24.24h3.93l-1.3-35.37c-2.63 1.33-3.93 2.61-6.56 2.61-1.94.66-4.59 1.32-8.51 1.32h-105.38c-2.89.05-5.77-.4-8.5-1.32-2.64 0-4.6-1.3-6.57-2.61h-.66l-.63 35.37h3.93c1.29-21.61 3.93-24.24 15.7-24.24h39.92v123.08h.03Zm228.46-113.91c4.59-8.51 11.14-12.44 19-12.44h3.27v-3.93c-4.59 0-10.49.66-20.28.66-6.57 0-13.77-.66-20.29-.66v3.93c4.59 0 13.1 0 13.1 6.57 0 2.6-.66 5.21-2.63 8.5l-28.81 49.09-32.72-52.38c-.66-1.95-1.32-3.27-1.32-4.59 0-7.2 9.83-7.2 13.76-7.2v-3.93c-6.54 0-20.95.66-27.49.66-8.5 0-17.01-.66-26.2-.66v3.93c11.12.66 15.71 3.27 23.56 17.02l33.38 54.33v54.99c0 13.1-1.94 15.7-13.73 15.7h-7.23v4.6c9.83-.67 19.67-1.33 29.46-1.33 9.83 0 19.63.66 29.45 1.33v-4.6h-5.24c-11.11 0-13.73-2.6-13.73-15.7v-54.99l34.69-58.9Zm-1706.612-170.2c0-21.61 3.268-26.2 22.256-26.2h9.169v-7.198c-16.357.78-32.728 1.221-49.103 1.322-17.678 0-34.694-.661-52.372-1.322v7.198h17.016c17.678 0 21.608 4.59 21.608 26.2v34.04c0 14.41-10.48 19.64-39.934 19.64-73.98 0-115.872-43.85-115.872-119.14 0-68.726 20.946-118.504 109.971-118.504 31.425 0 54.33 6.562 62.19 19 3.93 5.876 5.24 13.1 6.536 24.876h6.55v-50.413h-3.93c-5.239 1.323-11.789 1.971-22.256 1.971-7.846 0-41.244-1.971-47.793-1.971-49.74 0-81.165 11.115-108.661 37.314C14.666 896.867.269 929.603.269 962.987c0 48.453 32.736 123.743 155.806 123.743 20.297 0 46.471-1.97 67.43-4.59v-56.3h.013Zm214.727 24.87c18.339 29.46 21.608 35.37 45.174 35.37 12.438 0 26.186-1.97 35.355-3.27v-5.23h-11.128c-12.438 0-20.946-4.6-30.764-17.68-4.591-5.9-21.608-31.42-38.624-57.6l-17.678-27.484c28.145-17.678 38.624-32.1 38.624-52.385 0-31.413-28.144-51.075-72.656-51.075-16.368 0-47.794 1.971-71.36 4.591v5.24h7.198c15.707 0 18.988 3.93 18.988 22.269v151.864c0 18.34-3.269 22.27-18.988 22.27h-6.55v5.24c13.748 0 28.145-.66 41.893-.66 13.086 0 26.186.66 39.272.66v-5.24h-10.466c-15.72 0-18.988-3.93-18.988-22.27v-73.306c2.62 0 13.086-1.323 15.058-1.323 11.789 0 15.058 3.93 15.706 4.591 2.62 3.93 20.285 33.388 30.103 49.748l9.831 15.68Zm-70.698-173.466c5.888-.661 10.479-1.323 15.058-1.323 29.454 0 47.132 20.285 47.132 54.331 0 31.438-13.748 45.16-43.851 45.16-5.888 0-11.789 0-18.326-1.297v-96.871h-.013Zm315.515 102.76H629.38l24.876-71.996 28.806 71.996Zm-89.024 80.526c-4.579 13.1-9.818 17.02-22.918 17.02h-6.549v5.24c9.818-.66 20.946-.66 30.777-.66 10.479 0 20.284.66 30.764.66v-5.24h-9.157c-9.818 0-15.058-3.93-15.058-10.49 0-3.93 1.31-9.81 3.269-15.71l20.946-61.528h60.88l26.835 69.388c1.31 3.27 1.309 5.9 1.309 8.51 0 5.9-3.929 9.83-10.479 9.83h-9.818v5.24c11.776-.66 24.214-.66 36.004-.66 12.438 0 22.917 0 36.665.66v-5.24h-6.549c-12.438 0-15.707-4.59-26.835-33.38l-66.768-172.84h-7.86l-65.458 189.2Zm401.946-145.972v-43.215h-2.62c-5.24 2.633-22.256 1.971-32.723 1.971-1.958 0-20.285-1.971-33.384-1.971-89.024 0-115.872 65.484-115.872 106.067 0 28.14 11.128 55.63 30.764 75.29 22.918 22.9 56.951 33.38 102.786 33.38 15.045 0 30.764-1.32 41.231-1.97l13.086-42.55h-5.227c-11.128 28.17-25.537 38.64-56.95 38.64-61.541 0-96.236-37.98-96.236-105.384 0-68.092 27.496-97.546 90.996-97.546 41.893 0 58.909 10.467 58.909 37.314h5.24v-.026Zm242.876 128.962h-5.24c-15.05 26.2-21.61 32.07-41.25 32.07h-40.58c-13.1 0-17.69-5.21-17.69-17.68v-80.5h48.44c15.73 0 22.93 8.508 23.58 27.48h5.88v-57.596h-5.88c-.66 17.016-6.56 22.93-20.28 22.93h-51.74v-86.43h55c22.25 0 28.81 6.563 30.75 32.748h5.24l-1.32-41.269c-20.94.661-41.88 1.323-62.82 1.323-26.2 0-53.04-.662-79.22-1.323v5.901h7.2c15.7 0 18.98 3.93 18.98 22.269v151.867c0 18.34-3.27 22.27-18.98 22.27h-6.54v5.23c17.68 0 70.05-.66 74.64-.66 15.71 0 44.51.66 66.74.66l15.09-39.29Zm105.37 11.77c0 18.34-3.26 22.27-18.97 22.27h-7.85v5.24c22.27-.66 43.85-.66 66.12-.66 19.64 0 39.26 0 58.92.66l16.37-39.94h-5.24c-13.1 25.53-22.27 32.07-43.85 32.07h-22.93c-11.77 0-15.7-3.27-15.7-13.74V903.43c0-18.339 2.6-22.269 18.97-22.269h9.83v-5.901c-13.76.661-27.48 1.323-41.24 1.323-13.1 0-26.85-.662-40.59-1.323v5.901h7.85c15.05 0 18.31 3.93 18.31 22.269v151.86Zm291.98-75.286h-53.02l24.88-71.996 28.14 71.996Zm-89.05 80.526c-4.57 13.1-9.81 17.02-22.9 17.02h-6.54v5.24c9.8-.66 20.94-.66 30.75-.66 10.49 0 20.95.66 30.78.66v-5.24h-9.17c-9.83 0-15.05-3.93-15.05-10.49 0-3.93 1.3-9.81 3.27-15.71l21.61-61.528h60.22l26.84 69.388c1.3 3.27 1.3 5.9 1.3 8.51 0 5.9-3.93 9.83-10.47 9.83h-9.83v5.24c12.44-.66 24.22-.66 36.66-.66 11.8 0 22.27 0 36.01.66v-5.24h-6.56c-11.78 0-15.71-4.59-26.17-33.38l-66.77-172.84h-8.51l-65.47 189.2Zm267.1-4.58c0 11.78-9.17 21.61-20.95 21.61h-7.84v5.24c17.01 0 30.11-.66 35.36-.66 5.22 0 17.66.66 36 .66v-5.24h-11.12c-15.73 0-22.93-6.56-22.93-21.61l-2.61-147.929 153.19 178.059h2.61l-1.95-187.228c0-11.777 6.54-17.678 18.98-17.678h6.56v-5.901c-10.49.661-21.61 1.323-32.1 1.323-11.12 0-22.91-.662-34.68-1.323v5.901h7.2c17.67 0 24.87 7.198 25.53 24.876l1.95 134.21-141.4-164.987c-5.87.661-20.94 1.323-24.21 1.323-7.2 0-15.05-.662-22.25-1.323h-.66v5.901c13.74 0 17.02 1.971 32.73 17.678l2.59 157.098Zm304.41-178.057c5.24-.662 12.44-.662 22.27-.662 30.75 0 109.31.662 109.31 102.773 0 67.426-28.81 97.546-92.94 97.546-30.78 0-38.64-5.9-38.64-30.12V877.893Zm-26.84 177.397c0 18.34-3.27 22.27-18.98 22.27h-6.56v5.24c13.1 0 34.7-.66 41.27-.66 5.87 0 28.8.66 37.31.66l23.55.64c69.39 1.32 111.29-59.56 111.29-113.229 0-32.722-15.05-98.868-136.16-98.868-26.2.661-68.75 3.93-70.04 3.93l-7.85.661v5.24h7.85c15.05 0 18.32 3.93 18.32 22.269v151.847Z" fill="#193E75"/><path fill-rule="evenodd" clip-rule="evenodd" d="M1189.1 174.166c1.33 1.958 1.33 3.93 1.33 5.24 0 6.537-5.24 11.128-11.81 11.128h-16.36v108.012c.01 1.464-.27 2.915-.83 4.27a11.023 11.023 0 0 1-2.4 3.621 11.043 11.043 0 0 1-7.89 3.237v.649c.66.661.66 2.62.66 3.929 0 5.889-5.25 11.129-11.79 11.129l-.65-1.31v162.991l134.19 58.921v-29.454h-3.27c-6.54 0-11.78-5.24-11.78-11.128v-77.248h-11.11c-7.22 0-12.44-5.24-12.44-11.79 0-2.183.62-4.322 1.77-6.175a11.715 11.715 0 0 1 4.77-4.304l68.75-34.694 69.39 34.694c1.96.959 3.61 2.45 4.77 4.303a11.724 11.724 0 0 1 1.77 6.176c0 6.55-5.22 11.79-12.44 11.79h-11.12v77.248c.02 1.463-.26 2.915-.82 4.27a11.033 11.033 0 0 1-2.4 3.621 11.16 11.16 0 0 1-3.62 2.411c-1.36.555-2.81.836-4.27.826h-3.93v183.302h82.47V316.224h-.66c-16.37-163.004-148.59-298.512-332.56-301.78V26.88l92.28 147.285Zm122.41 166.272c6.56 0 11.78 4.592 11.78 11.128.01 1.55-.29 3.086-.88 4.519a11.815 11.815 0 0 1-2.55 3.832 11.726 11.726 0 0 1-8.35 3.439c-1.55.005-3.08-.296-4.51-.887a11.616 11.616 0 0 1-3.83-2.555 11.664 11.664 0 0 1-2.55-3.831 11.659 11.659 0 0 1-.88-4.517c-.02-6.536 5.24-11.128 11.77-11.128Z" fill="#DFB22F"/><path fill-rule="evenodd" clip-rule="evenodd" d="M832.98 516.542h-3.93a11.478 11.478 0 0 1-11.128-11.128v-77.248h-11.128c-7.198 0-12.438-5.24-12.438-11.79a11.667 11.667 0 0 1 6.55-10.479l69.388-34.695 68.74 34.695a11.669 11.669 0 0 1 6.549 10.479c0 6.55-5.239 11.79-12.438 11.79h-11.141v77.248c0 5.888-5.239 11.128-11.789 11.128h-3.256v29.454l134.201-58.922V324.083l-.65 1.31c-6.55 0-11.79-5.24-11.79-11.128 0-1.31 0-3.268.66-3.93v-.648c-6.55 0-11.79-5.24-11.79-11.128l.65-108.012h-16.37c-6.548 0-11.774-4.592-11.774-11.128 0-1.31-.001-3.269 1.309-5.24l92.305-147.285V14.456c-182.639 3.93-313.569 135.508-330.585 301.781v383.619h79.868V516.542h-.013Zm36.665-176.104c6.537 0 11.777 4.591 11.777 11.128a11.742 11.742 0 0 1-7.261 10.903c-1.432.59-2.967.892-4.516.887a11.732 11.732 0 0 1-8.351-3.438 11.729 11.729 0 0 1-3.438-8.352c0-6.537 5.24-11.128 11.789-11.128Z" fill="#193E75"/></svg>