<svg width="2901" height="816" fill="none" xmlns="http://www.w3.org/2000/svg"><path d="m2890.18 150.585-24.98 33.906-24.85-33.906h-10.74v73.104h11.06v-54.845l21.21 28.955h6.59l21.37-29v54.89h11.06v-73.104h-10.72Zm-78.56 53.687c0 12.104-11.71 21.052-26.43 20.666-13.83-.273-26.87-6.109-26.87-6.109l3.05-9.697s13.3 5.881 23.23 5.768c9.31-.114 15.31-4.201 15.31-10.628 0-7.79-7.79-9.97-17.01-12.65-11.11-3.202-23.81-6.904-23.81-21.96 0-11.991 10.68-19.894 26.1-20.28 11.06-.318 24.32 5.246 24.32 5.246l-3.06 9.651s-12.11-5.132-20.65-4.905c-9.17.318-15.1 4.02-15.1 10.288 0 7.312 7.74 9.606 16.74 12.104 11.33 3.225 24.18 6.927 24.18 22.506Zm-275.79 218.083c0 42.672-25.18 67.789-66.65 67.789-30.57 0-49.17-16.397-49.17-42.627 0-29.477 24.05-47.032 64.43-47.032 19.67 0 35 2.18 51.39 5.519v16.351Zm0-53.527c-16.39-4.429-38.26-6.541-57.93-6.541-69.92 0-111.51 33.838-111.51 89.591 0 49.235 39.41 81.983 96.2 81.983 33.89 0 61.25-13.081 79.78-36.086 7.7 23.005 27.32 36.086 53.58 36.086 10.97 0 22.96-2.181 30.59-5.451l-5.45-41.582c-4.32 1.091-9.81 2.226-14.17 2.226-13.15 0-18.65-6.586-18.65-19.667V354.589c0-61.204-40.38-98.38-107.1-98.38-32.81 0-69.99 8.721-101.69 24.05l16.39 42.672c23.01-13.126 50.37-20.825 76.58-20.825 41.47 0 63.38 18.645 63.38 54.663v12.059Zm-518.1-106.01h-53.53v265.57h53.53v-265.57Zm-26.23-38.266c19.62 0 33.91-14.217 33.91-33.906 0-19.667-14.29-33.838-33.91-33.838-19.67 0-34.93 14.171-34.93 33.838 0 19.689 15.26 33.906 34.93 33.906Zm745.41 263.367c-18.53 0-25.07-7.586-25.07-28.411V150.154h-53.65v317.053c0 42.627 24.1 66.654 68.91 66.654 10.94 0 22.93-2.181 30.56-5.451l-5.45-42.626c-4.36 1.044-10.94 2.135-15.3 2.135Zm-911.58-183.678c21.92 0 47.08 9.924 67.86 25.23l23.98-39.356c-23.98-20.757-60.07-33.906-93.97-33.906-77.6 0-134.47 57.956-134.47 138.826 0 84.163 52.51 138.826 131.15 138.826 37.22 0 75.49-13.081 97.29-33.838l-23.98-38.335c-19.74 16.352-41.54 24.096-65.68 24.096-51.3 0-84.16-34.996-84.16-90.749 0-54.617 32.86-90.794 81.98-90.794Zm-278.67-48.032c-34.95 0-65.59 15.329-85.26 40.447l-4.36-33.838h-44.85V528.41h53.57V379.728c0-44.806 28.39-75.487 68.91-75.487 36.01 0 59.02 23.05 59.02 59.068V528.41h53.53V356.769c0-60.113-40.45-100.56-100.56-100.56ZM1342.27 528.41V262.818h-53.53V528.41h53.53Zm-26.23-303.858c19.69 0 33.9-14.217 33.9-33.906 0-19.667-14.21-33.838-33.9-33.838-19.67 0-35 14.171-35 33.838 0 19.689 15.33 33.906 35 33.906Zm-104.97 33.905c-30.59 0-58.97 14.103-74.28 38.199l-4.36-33.838h-44.88V528.41h53.6V385.224c0-51.392 24.07-78.644 69.92-78.644 7.75 0 18.65 2.066 29.55 4.315l6.58-45.965c-10.94-4.361-23-6.473-36.13-6.473Zm-362.833-44.806h66.654c50.302 0 79.803 25.072 79.803 69.878 0 44.852-29.501 69.969-79.803 69.969h-66.654V213.651Zm-55.753-47.033V528.41h55.753V400.485h74.284c76.533 0 127.929-46.987 127.929-116.956 0-69.878-51.396-116.911-127.929-116.911H792.484ZM2203.59 485.784c-24.1 0-50.3-12.037-63.45-28.388V377.48c0-44.738 27.36-73.239 68.83-73.239 43.78 0 71.08 32.906 71.08 85.344 0 61.203-28.39 96.199-76.46 96.199Zm16.35-229.575c-33.91 0-65.57 14.239-85.25 40.447l-4.36-33.838h-44.81V635.51h53.53V507.653c16.35 15.307 46.98 26.208 73.19 26.208 73.26 0 122.48-59.023 122.48-144.276 0-79.78-45.95-133.376-114.78-133.376Z" fill="#58595D"/><path d="M.658 380.478c0 225.646 173.095 414.025 397.65 434.94V528.365c-105.192-9.879-177.455-87.592-177.455-190.559 0-99.742 66.813-172.005 158.811-172.005 84.322 0 141.323 52.596 141.323 130.378 0 68.992-43.807 113.958-122.679 125.949v106.237c162.104-4.36 267.296-102.922 267.296-250.899C665.604 117.565 540.722.382 369.853.382 159.536.382.658 164.643.658 380.478Z" fill="url(#a)"/><defs><linearGradient id="a" x1="111.21" y1="695.976" x2="499.588" y2="23.28" gradientUnits="userSpaceOnUse"><stop stop-color="#0073C0"/><stop offset=".1" stop-color="#007AC3"/><stop offset=".2" stop-color="#0B81C7"/><stop offset=".3" stop-color="#1688CB"/><stop offset=".4" stop-color="#218FCF"/><stop offset=".5" stop-color="#2D97D3"/><stop offset=".6" stop-color="#2EA1D5"/><stop offset=".7" stop-color="#30ABD6"/><stop offset=".8" stop-color="#32B4D7"/><stop offset=".9" stop-color="#35BED7"/><stop offset="1" stop-color="#37C7D8"/></linearGradient></defs></svg>