<svg class="svg-icon" style="width: 1em; height: 1em;vertical-align: middle;fill: currentColor;overflow: hidden;" viewBox="0 0 1024 1024" version="1.1" xmlns="http://www.w3.org/2000/svg"><path d="M893.456828 709.055005"  /><path d="M491.889987 337.939709"  /><path d="M568.154951 338.993714"  /><path d="M955.449741 189.05275c-5.835915-4.548596-30.018687-19.392676-105.755626-19.392676-31.56695 0-67.922972 2.64934-108.807125 7.853875C589.793784 196.792015 542.308283 233.5635 531.491936 244.048295c-10.803044-10.474562-58.377572-47.25628-209.490222-66.534346-40.883129-5.204535-77.632101-7.853875-109.326964-7.853875-77.859275 0-104.295368 16.020882-108.331287 19.078521-13.233396 9.743922-23.809265 28.92682-23.809265 46.638203l0 495.779573c0 19.60143 15.267728 34.388205 33.70566 34.388205 3.27151 0 7.294127-0.474814 10.603499-1.38658 0.356111-0.104377 36.679387-9.743922 105.687064-9.743922 25.304316 0 52.325739 1.291412 79.971379 3.836375 145.623635 13.409404 193.614649 51.947116 193.938014 52.213175 7.749498 6.733355 18.038842 10.44591 28.898167 10.44591 9.354042 0 18.473747-2.868327 25.448602-7.949043 0.442068-0.303922 45.980217-30.902824 195.810664-54.872748 23.694655-3.789303 48.505737-5.717212 73.733305-5.717212 62.730717 0 108.071368 11.9471 108.612697 12.089339 3.176342 0.845251 6.349615 1.26276 9.431813 1.26276 9.762341 0 16.86204-4.131087 22.725584-11.633968 4.786003-6.116301 5.803169-14.045901 5.803169-22.934339L974.903815 235.378845C974.902792 219.993436 969.798541 199.61327 955.449741 189.05275zM312.805262 719.52445c-28.827559-2.659573-57.526181-4.007267-84.017532-4.007267-58.086953 0-89.926102 6.420223-109.36892 9.515724L119.41881 235.378845c0-5.517667 5.078669-13.162788 7.448646-14.929014 0.190335-0.113587 20.630876-11.889795 85.170798-11.889795 30.052456 0 65.541739 2.544963 104.796788 7.549953 150.58053 19.202341 187.228195 52.443419 187.267081 52.433186 3.25309 3.843538 7.366781 5.994528 11.655458 5.994528l-7.481392 0L508.276189 768.840646C488.832348 753.945401 422.89152 729.657228 312.805262 719.52445zM938.972465 724.95616c-16.633842-3.722788-57.659211-11.481496-110.63782-11.481496-27.284413 0-55.593156 2.089591-81.310887 6.210445-117.619838 18.813484-170.1881 41.555441-199.86398 53.592592L547.159778 274.53668l0.50756 0c4.181229 0 7.985882-1.944282 11.014868-5.538133 0.350994-0.361227 36.733623-35.177174 187.499371-54.408167 39.255049-5.004991 75.604932-6.79066 105.534592-6.79066 63.514569 0 84.299965 12.003382 84.299965 12.003382l0 0.12382c0 1.64343 4.27742 8.870018 4.27742 15.384385L938.972465 724.95616z"  /></svg>