<svg width="1208" height="1208" fill="none" xmlns="http://www.w3.org/2000/svg"><path d="M766.927 248.062H725.788l-1.204 3.276-261.23 710.938-2.471 6.724H655.818l1.088-3.525 39.911-129.287h227.406l40.024 129.291 1.09 3.521H1160.77l-2.49-6.733-262.691-710.938-1.208-3.267H766.927Zm43.433 220.31 69.804 225.491H740.752l69.608-225.491Z" fill="#fff" stroke="#212121" stroke-width="10"/><path d="M285.586 827.164v-160.41h113.652c21.306 0 37.758 3.667 49.754 10.565l.041.024.042.022c12.077 6.643 20.744 16.073 26.151 28.391l.021.046.021.046c5.816 12.55 8.814 27.589 8.814 45.261 0 14.222-3.084 27.086-9.19 38.687l-.012.023-.011.022c-5.626 10.955-15.034 20.039-28.615 27.141-13.029 6.66-30.862 10.182-53.852 10.182H285.586ZM583.78 610.011c-6.938-3.835-14.448-7.135-22.523-9.908a146.485 146.485 0 0 0 5.415-2.807l.008-.005.009-.005c29.716-16.36 51.2-37.733 64.095-64.202 12.711-26.09 19.06-54.022 19.06-83.732 0-33.837-6.47-63.465-19.601-88.722-13.104-25.53-32.248-46.662-57.32-63.379-24.694-16.682-54.583-28.933-89.55-36.853-34.954-8.241-74.568-12.336-118.803-12.336H104.199V969h288.203c59.003 0 108.822-7.862 149.292-23.785 40.534-15.948 71.224-39.998 91.732-72.264 20.817-32.237 31.066-72.135 31.066-119.4 0-28.107-6.196-55.05-18.56-80.779-12.559-26.138-33.387-47.037-62.152-62.761Zm-220.186-65.562h-78.008V390.387h78.984c25.065 0 45.091 2.9 60.288 8.482l.057.021.058.02c15.382 5.23 26.209 13.53 32.976 24.71 6.863 11.339 10.508 26.625 10.508 46.239 0 16.875-3.59 30.527-10.444 41.254l-.027.042-.026.042c-6.455 10.563-17.006 18.898-32.167 24.785-15.171 5.565-35.822 8.467-62.199 8.467Z" fill="#212121" stroke="#fff" stroke-width="10"/></svg>