<svg width="1208" height="1208" viewBox="0 0 1208 1208" fill="none" xmlns="http://www.w3.org/2000/svg">
<path d="M825.469 402.477L652.129 964H468.047L729.277 253.062H845.977L825.469 402.477ZM969.023 964L795.195 402.477L772.734 253.062H890.898L1153.59 964H969.023ZM962.188 698.863V831.188H597.441V698.863H962.188Z" fill="white"/>
<path d="M399.238 661.754H216.133L215.156 549.449H363.594C390.286 549.449 411.608 546.52 427.559 540.66C443.509 534.475 455.065 525.523 462.227 513.805C469.714 502.086 473.457 487.438 473.457 469.859C473.457 449.677 469.714 433.401 462.227 421.031C454.74 408.661 442.858 399.71 426.582 394.176C410.632 388.316 389.961 385.387 364.57 385.387H280.586V964H109.199V253.062H364.57C408.516 253.062 447.741 257.132 482.246 265.27C516.751 273.082 546.048 285.126 570.137 301.402C594.551 317.678 613.105 338.186 625.801 362.926C638.496 387.34 644.844 416.148 644.844 449.352C644.844 478.323 638.659 505.504 626.289 530.895C613.919 556.285 593.249 576.956 564.277 592.906C535.632 608.531 496.406 616.669 446.602 617.32L399.238 661.754ZM392.402 964H174.629L233.223 832.164H392.402C415.84 832.164 434.557 828.583 448.555 821.422C462.878 813.935 473.132 804.169 479.316 792.125C485.827 779.755 489.082 766.083 489.082 751.109C489.082 732.88 485.99 717.092 479.805 703.746C473.945 690.4 464.505 680.146 451.484 672.984C438.464 665.497 421.048 661.754 399.238 661.754H255.195L256.172 549.449H428.535L468.574 594.371C516.1 592.418 553.698 599.091 581.367 614.391C609.362 629.69 629.382 649.872 641.426 674.938C653.47 700.003 659.492 726.207 659.492 753.551C659.492 800.1 649.401 839 629.219 870.25C609.362 901.5 579.577 924.938 539.863 940.562C500.15 956.188 450.996 964 392.402 964Z" fill="#263238"/>
</svg>
