<svg fill="none" height="1172" width="3437" xmlns="http://www.w3.org/2000/svg"><mask id="a" fill="#000" height="780" maskUnits="userSpaceOnUse" width="2919" x="448.047" y="206"><path d="M448.047 206h2919v780h-2919z" fill="#fff"/><path d="M820.469 404.477 647.129 966H463.047l261.23-710.938h116.7zM964.023 966 790.195 404.477l-22.461-149.415h118.164L1148.59 966zm-6.835-265.137v132.325H592.441V700.863z"/><path d="M1271.21 550.473V966h-164.55V437.68h154.3zm-19.53 133.3-38.57.977c0-40.365 4.88-76.335 14.64-107.91 9.77-31.901 23.6-58.919 41.51-81.055 17.9-22.135 39.22-38.9 63.96-50.293 25.07-11.719 52.9-17.578 83.5-17.578 24.41 0 46.71 3.581 66.89 10.742 20.51 7.162 38.09 18.718 52.74 34.668 14.97 15.951 26.36 37.11 34.18 63.477 8.14 26.041 12.2 58.268 12.2 96.679V966h-165.52V632.992c0-21.159-2.93-37.272-8.79-48.34-5.86-11.393-14.32-19.205-25.39-23.437s-24.58-6.348-40.53-6.348c-16.93 0-31.25 3.255-42.97 9.766-11.72 6.51-21.16 15.625-28.32 27.344-6.83 11.393-11.88 24.902-15.14 40.527-2.93 15.625-4.39 32.715-4.39 51.269zm666.07 161.133V216h165.53v750h-148.44zm-324.21-136.718v-10.254c0-40.039 4.39-76.498 13.18-109.375 8.79-33.204 21.81-61.687 39.06-85.45 17.25-24.088 38.74-42.643 64.45-55.664 25.72-13.021 55.34-19.531 88.87-19.531 29.95 0 56.15 6.999 78.61 20.996 22.47 13.672 41.67 32.878 57.62 57.617 15.95 24.74 28.97 53.711 39.06 86.914 10.1 32.878 17.75 68.36 22.95 106.446v12.207c-5.2 35.807-12.85 69.661-22.95 101.562-10.09 31.576-23.11 59.571-39.06 83.985s-35.32 43.619-58.1 57.617c-22.46 13.672-48.83 20.508-79.11 20.508-33.52 0-63.15-6.674-88.86-20.02-25.39-13.346-46.71-32.064-63.97-56.152-16.92-24.089-29.78-52.409-38.57-84.961s-13.18-68.034-13.18-106.445zm164.55-10.254v10.254c0 19.856 1.3 38.248 3.9 55.175 2.61 16.927 7 31.901 13.19 44.922 6.51 12.695 14.97 22.624 25.39 29.785 10.74 7.162 23.92 10.742 39.55 10.742 21.16 0 38.57-5.045 52.24-15.136 14-10.091 24.25-24.414 30.76-42.969 6.84-18.555 9.77-40.365 8.79-65.43v-38.574c.66-21.484-.81-40.364-4.39-56.641-3.58-16.601-9.28-30.436-17.09-41.503-7.49-11.068-17.09-19.369-28.81-24.903-11.39-5.859-24.9-8.789-40.53-8.789-15.3 0-28.32 3.581-39.06 10.742-10.42 7.162-18.88 17.253-25.39 30.274-6.51 12.695-11.23 27.832-14.16 45.41-2.93 17.253-4.39 36.133-4.39 56.641zm614.31 277.832c-42.97 0-81.38-6.674-115.23-20.02-33.86-13.672-62.5-32.389-85.94-56.152-23.11-23.763-40.85-51.107-53.22-82.032-12.05-30.924-18.07-63.639-18.07-98.144v-18.555c0-38.737 5.37-74.544 16.11-107.422 10.75-33.203 26.7-62.174 47.86-86.914 21.16-24.739 47.69-43.945 79.59-57.617 31.9-13.997 69.01-20.996 111.32-20.996 37.44 0 70.97 6.022 100.59 18.066 29.62 12.045 54.69 29.297 75.2 51.758 20.83 22.461 36.62 49.642 47.36 81.543 11.07 31.901 16.6 67.709 16.6 107.422v66.895h-431.64V650.57h271v-12.695c.32-17.578-2.77-32.552-9.28-44.922-6.19-12.37-15.3-21.81-27.35-28.32-12.04-6.511-26.69-9.766-43.94-9.766-17.9 0-32.72 3.906-44.43 11.719-11.4 7.812-20.35 18.555-26.86 32.226-6.18 13.347-10.58 28.809-13.18 46.387-2.61 17.578-3.91 36.133-3.91 55.664v18.555c0 19.531 2.6 37.272 7.81 53.223 5.54 15.95 13.35 29.622 23.44 41.015 10.42 11.068 22.79 19.694 37.11 25.879 14.65 6.185 31.25 9.277 49.8 9.277 22.47 0 44.6-4.231 66.41-12.695 21.81-8.463 40.53-22.461 56.15-41.992l74.71 88.867c-10.74 15.3-26.04 30.111-45.9 44.434-19.53 14.323-42.97 26.041-70.31 35.156-27.34 8.789-57.94 13.184-91.8 13.184zm395.08-407.227V966h-164.55V437.68h153.81zm156.25-134.766-2.93 152.832c-6.51-.651-15.3-1.464-26.37-2.441-11.06-.976-20.34-1.465-27.83-1.465-19.2 0-35.81 2.279-49.8 6.836-13.68 4.232-25.07 10.742-34.18 19.531-8.79 8.464-15.3 19.206-19.53 32.227-3.91 13.021-5.7 28.158-5.38 45.41l-29.78-19.531c0-35.482 3.42-67.708 10.25-96.68 7.17-29.297 17.26-54.525 30.28-75.683 13.02-21.485 28.81-37.924 47.36-49.317 18.56-11.719 39.39-17.578 62.5-17.578 8.14 0 16.11.488 23.93 1.465 8.13.976 15.3 2.441 21.48 4.394z"/><path d="M3197.23 817.562c0-9.114-3.1-16.927-9.28-23.437-5.86-6.836-16.28-13.021-31.25-18.555-14.97-5.859-35.97-11.718-62.99-17.578-25.72-5.534-49.97-12.858-72.75-21.972-22.46-9.115-42.16-20.183-59.08-33.204-16.93-13.02-30.28-28.483-40.04-46.386-9.44-17.904-14.16-38.412-14.16-61.524 0-22.461 4.72-43.62 14.16-63.476 9.76-20.183 23.92-37.923 42.48-53.223 18.88-15.625 41.83-27.832 68.84-36.621 27.02-9.115 57.78-13.672 92.29-13.672 47.53 0 88.54 7.324 123.05 21.973 34.5 14.323 61.03 34.505 79.59 60.547 18.88 25.716 28.32 55.501 28.32 89.355h-164.55c0-13.346-2.28-24.74-6.84-34.18-4.23-9.44-11.23-16.601-21-21.484-9.76-5.208-22.78-7.813-39.06-7.813-11.39 0-21.81 2.116-31.25 6.348-9.11 4.232-16.44 10.091-21.97 17.578-5.54 7.487-8.3 16.276-8.3 26.367 0 7.162 1.63 13.672 4.88 19.532 3.58 5.534 8.95 10.742 16.11 15.625 7.17 4.557 16.28 8.789 27.35 12.695 11.07 3.581 24.41 6.836 40.04 9.766 35.48 6.51 68.68 15.787 99.61 27.832 30.92 12.044 55.99 29.134 75.19 51.269 19.53 22.136 29.3 51.921 29.3 89.356 0 23.437-5.37 45.084-16.12 64.941-10.74 19.531-26.2 36.784-46.38 51.758-20.18 14.648-44.44 26.042-72.76 34.18s-60.22 12.207-95.7 12.207c-50.45 0-93.1-8.952-127.93-26.856-34.83-18.229-61.2-41.015-79.1-68.359-17.58-27.669-26.37-55.664-26.37-83.985h153.32c.65 16.276 4.56 29.623 11.72 40.039 7.49 10.417 17.42 18.067 29.79 22.95s26.69 7.324 42.97 7.324c14.97 0 27.34-2.116 37.1-6.348 10.1-4.232 17.75-9.928 22.95-17.09 5.21-7.487 7.82-16.113 7.82-25.879z"/></mask><g fill="#fff"><path d="M820.469 404.477 647.129 966H463.047l261.23-710.938h116.7zM964.023 966 790.195 404.477l-22.461-149.415h118.164L1148.59 966zm-6.835-265.137v132.325H592.441V700.863z"/><path d="M1271.21 550.473V966h-164.55V437.68h154.3zm-19.53 133.3-38.57.977c0-40.365 4.88-76.335 14.64-107.91 9.77-31.901 23.6-58.919 41.51-81.055 17.9-22.135 39.22-38.9 63.96-50.293 25.07-11.719 52.9-17.578 83.5-17.578 24.41 0 46.71 3.581 66.89 10.742 20.51 7.162 38.09 18.718 52.74 34.668 14.97 15.951 26.36 37.11 34.18 63.477 8.14 26.041 12.2 58.268 12.2 96.679V966h-165.52V632.992c0-21.159-2.93-37.272-8.79-48.34-5.86-11.393-14.32-19.205-25.39-23.437s-24.58-6.348-40.53-6.348c-16.93 0-31.25 3.255-42.97 9.766-11.72 6.51-21.16 15.625-28.32 27.344-6.83 11.393-11.88 24.902-15.14 40.527-2.93 15.625-4.39 32.715-4.39 51.269zm666.07 161.133V216h165.53v750h-148.44zm-324.21-136.718v-10.254c0-40.039 4.39-76.498 13.18-109.375 8.79-33.204 21.81-61.687 39.06-85.45 17.25-24.088 38.74-42.643 64.45-55.664 25.72-13.021 55.34-19.531 88.87-19.531 29.95 0 56.15 6.999 78.61 20.996 22.47 13.672 41.67 32.878 57.62 57.617 15.95 24.74 28.97 53.711 39.06 86.914 10.1 32.878 17.75 68.36 22.95 106.446v12.207c-5.2 35.807-12.85 69.661-22.95 101.562-10.09 31.576-23.11 59.571-39.06 83.985s-35.32 43.619-58.1 57.617c-22.46 13.672-48.83 20.508-79.11 20.508-33.52 0-63.15-6.674-88.86-20.02-25.39-13.346-46.71-32.064-63.97-56.152-16.92-24.089-29.78-52.409-38.57-84.961s-13.18-68.034-13.18-106.445zm164.55-10.254v10.254c0 19.856 1.3 38.248 3.9 55.175 2.61 16.927 7 31.901 13.19 44.922 6.51 12.695 14.97 22.624 25.39 29.785 10.74 7.162 23.92 10.742 39.55 10.742 21.16 0 38.57-5.045 52.24-15.136 14-10.091 24.25-24.414 30.76-42.969 6.84-18.555 9.77-40.365 8.79-65.43v-38.574c.66-21.484-.81-40.364-4.39-56.641-3.58-16.601-9.28-30.436-17.09-41.503-7.49-11.068-17.09-19.369-28.81-24.903-11.39-5.859-24.9-8.789-40.53-8.789-15.3 0-28.32 3.581-39.06 10.742-10.42 7.162-18.88 17.253-25.39 30.274-6.51 12.695-11.23 27.832-14.16 45.41-2.93 17.253-4.39 36.133-4.39 56.641zm614.31 277.832c-42.97 0-81.38-6.674-115.23-20.02-33.86-13.672-62.5-32.389-85.94-56.152-23.11-23.763-40.85-51.107-53.22-82.032-12.05-30.924-18.07-63.639-18.07-98.144v-18.555c0-38.737 5.37-74.544 16.11-107.422 10.75-33.203 26.7-62.174 47.86-86.914 21.16-24.739 47.69-43.945 79.59-57.617 31.9-13.997 69.01-20.996 111.32-20.996 37.44 0 70.97 6.022 100.59 18.066 29.62 12.045 54.69 29.297 75.2 51.758 20.83 22.461 36.62 49.642 47.36 81.543 11.07 31.901 16.6 67.709 16.6 107.422v66.895h-431.64V650.57h271v-12.695c.32-17.578-2.77-32.552-9.28-44.922-6.19-12.37-15.3-21.81-27.35-28.32-12.04-6.511-26.69-9.766-43.94-9.766-17.9 0-32.72 3.906-44.43 11.719-11.4 7.812-20.35 18.555-26.86 32.226-6.18 13.347-10.58 28.809-13.18 46.387-2.61 17.578-3.91 36.133-3.91 55.664v18.555c0 19.531 2.6 37.272 7.81 53.223 5.54 15.95 13.35 29.622 23.44 41.015 10.42 11.068 22.79 19.694 37.11 25.879 14.65 6.185 31.25 9.277 49.8 9.277 22.47 0 44.6-4.231 66.41-12.695 21.81-8.463 40.53-22.461 56.15-41.992l74.71 88.867c-10.74 15.3-26.04 30.111-45.9 44.434-19.53 14.323-42.97 26.041-70.31 35.156-27.34 8.789-57.94 13.184-91.8 13.184zm395.08-407.227V966h-164.55V437.68h153.81zm156.25-134.766-2.93 152.832c-6.51-.651-15.3-1.464-26.37-2.441-11.06-.976-20.34-1.465-27.83-1.465-19.2 0-35.81 2.279-49.8 6.836-13.68 4.232-25.07 10.742-34.18 19.531-8.79 8.464-15.3 19.206-19.53 32.227-3.91 13.021-5.7 28.158-5.38 45.41l-29.78-19.531c0-35.482 3.42-67.708 10.25-96.68 7.17-29.297 17.26-54.525 30.28-75.683 13.02-21.485 28.81-37.924 47.36-49.317 18.56-11.719 39.39-17.578 62.5-17.578 8.14 0 16.11.488 23.93 1.465 8.13.976 15.3 2.441 21.48 4.394z"/><path d="M3197.23 817.562c0-9.114-3.1-16.927-9.28-23.437-5.86-6.836-16.28-13.021-31.25-18.555-14.97-5.859-35.97-11.718-62.99-17.578-25.72-5.534-49.97-12.858-72.75-21.972-22.46-9.115-42.16-20.183-59.08-33.204-16.93-13.02-30.28-28.483-40.04-46.386-9.44-17.904-14.16-38.412-14.16-61.524 0-22.461 4.72-43.62 14.16-63.476 9.76-20.183 23.92-37.923 42.48-53.223 18.88-15.625 41.83-27.832 68.84-36.621 27.02-9.115 57.78-13.672 92.29-13.672 47.53 0 88.54 7.324 123.05 21.973 34.5 14.323 61.03 34.505 79.59 60.547 18.88 25.716 28.32 55.501 28.32 89.355h-164.55c0-13.346-2.28-24.74-6.84-34.18-4.23-9.44-11.23-16.601-21-21.484-9.76-5.208-22.78-7.813-39.06-7.813-11.39 0-21.81 2.116-31.25 6.348-9.11 4.232-16.44 10.091-21.97 17.578-5.54 7.487-8.3 16.276-8.3 26.367 0 7.162 1.63 13.672 4.88 19.532 3.58 5.534 8.95 10.742 16.11 15.625 7.17 4.557 16.28 8.789 27.35 12.695 11.07 3.581 24.41 6.836 40.04 9.766 35.48 6.51 68.68 15.787 99.61 27.832 30.92 12.044 55.99 29.134 75.19 51.269 19.53 22.136 29.3 51.921 29.3 89.356 0 23.437-5.37 45.084-16.12 64.941-10.74 19.531-26.2 36.784-46.38 51.758-20.18 14.648-44.44 26.042-72.76 34.18s-60.22 12.207-95.7 12.207c-50.45 0-93.1-8.952-127.93-26.856-34.83-18.229-61.2-41.015-79.1-68.359-17.58-27.669-26.37-55.664-26.37-83.985h153.32c.65 16.276 4.56 29.623 11.72 40.039 7.49 10.417 17.42 18.067 29.79 22.95s26.69 7.324 42.97 7.324c14.97 0 27.34-2.116 37.1-6.348 10.1-4.232 17.75-9.928 22.95-17.09 5.21-7.487 7.82-16.113 7.82-25.879z"/></g><path d="M820.469 404.477 647.129 966H463.047l261.23-710.938h116.7zM964.023 966 790.195 404.477l-22.461-149.415h118.164L1148.59 966zm-6.835-265.137v132.325H592.441V700.863z" mask="url(#a)" stroke="#212121" stroke-width="20"/><path d="M1271.21 550.473V966h-164.55V437.68h154.3zm-19.53 133.3-38.57.977c0-40.365 4.88-76.335 14.64-107.91 9.77-31.901 23.6-58.919 41.51-81.055 17.9-22.135 39.22-38.9 63.96-50.293 25.07-11.719 52.9-17.578 83.5-17.578 24.41 0 46.71 3.581 66.89 10.742 20.51 7.162 38.09 18.718 52.74 34.668 14.97 15.951 26.36 37.11 34.18 63.477 8.14 26.041 12.2 58.268 12.2 96.679V966h-165.52V632.992c0-21.159-2.93-37.272-8.79-48.34-5.86-11.393-14.32-19.205-25.39-23.437s-24.58-6.348-40.53-6.348c-16.93 0-31.25 3.255-42.97 9.766-11.72 6.51-21.16 15.625-28.32 27.344-6.83 11.393-11.88 24.902-15.14 40.527-2.93 15.625-4.39 32.715-4.39 51.269zm666.07 161.133V216h165.53v750h-148.44zm-324.21-136.718v-10.254c0-40.039 4.39-76.498 13.18-109.375 8.79-33.204 21.81-61.687 39.06-85.45 17.25-24.088 38.74-42.643 64.45-55.664 25.72-13.021 55.34-19.531 88.87-19.531 29.95 0 56.15 6.999 78.61 20.996 22.47 13.672 41.67 32.878 57.62 57.617 15.95 24.74 28.97 53.711 39.06 86.914 10.1 32.878 17.75 68.36 22.95 106.446v12.207c-5.2 35.807-12.85 69.661-22.95 101.562-10.09 31.576-23.11 59.571-39.06 83.985s-35.32 43.619-58.1 57.617c-22.46 13.672-48.83 20.508-79.11 20.508-33.52 0-63.15-6.674-88.86-20.02-25.39-13.346-46.71-32.064-63.97-56.152-16.92-24.089-29.78-52.409-38.57-84.961s-13.18-68.034-13.18-106.445zm164.55-10.254v10.254c0 19.856 1.3 38.248 3.9 55.175 2.61 16.927 7 31.901 13.19 44.922 6.51 12.695 14.97 22.624 25.39 29.785 10.74 7.162 23.92 10.742 39.55 10.742 21.16 0 38.57-5.045 52.24-15.136 14-10.091 24.25-24.414 30.76-42.969 6.84-18.555 9.77-40.365 8.79-65.43v-38.574c.66-21.484-.81-40.364-4.39-56.641-3.58-16.601-9.28-30.436-17.09-41.503-7.49-11.068-17.09-19.369-28.81-24.903-11.39-5.859-24.9-8.789-40.53-8.789-15.3 0-28.32 3.581-39.06 10.742-10.42 7.162-18.88 17.253-25.39 30.274-6.51 12.695-11.23 27.832-14.16 45.41-2.93 17.253-4.39 36.133-4.39 56.641zm614.31 277.832c-42.97 0-81.38-6.674-115.23-20.02-33.86-13.672-62.5-32.389-85.94-56.152-23.11-23.763-40.85-51.107-53.22-82.032-12.05-30.924-18.07-63.639-18.07-98.144v-18.555c0-38.737 5.37-74.544 16.11-107.422 10.75-33.203 26.7-62.174 47.86-86.914 21.16-24.739 47.69-43.945 79.59-57.617 31.9-13.997 69.01-20.996 111.32-20.996 37.44 0 70.97 6.022 100.59 18.066 29.62 12.045 54.69 29.297 75.2 51.758 20.83 22.461 36.62 49.642 47.36 81.543 11.07 31.901 16.6 67.709 16.6 107.422v66.895h-431.64V650.57h271v-12.695c.32-17.578-2.77-32.552-9.28-44.922-6.19-12.37-15.3-21.81-27.35-28.32-12.04-6.511-26.69-9.766-43.94-9.766-17.9 0-32.72 3.906-44.43 11.719-11.4 7.812-20.35 18.555-26.86 32.226-6.18 13.347-10.58 28.809-13.18 46.387-2.61 17.578-3.91 36.133-3.91 55.664v18.555c0 19.531 2.6 37.272 7.81 53.223 5.54 15.95 13.35 29.622 23.44 41.015 10.42 11.068 22.79 19.694 37.11 25.879 14.65 6.185 31.25 9.277 49.8 9.277 22.47 0 44.6-4.231 66.41-12.695 21.81-8.463 40.53-22.461 56.15-41.992l74.71 88.867c-10.74 15.3-26.04 30.111-45.9 44.434-19.53 14.323-42.97 26.041-70.31 35.156-27.34 8.789-57.94 13.184-91.8 13.184zm395.08-407.227V966h-164.55V437.68h153.81zm156.25-134.766-2.93 152.832c-6.51-.651-15.3-1.464-26.37-2.441-11.06-.976-20.34-1.465-27.83-1.465-19.2 0-35.81 2.279-49.8 6.836-13.68 4.232-25.07 10.742-34.18 19.531-8.79 8.464-15.3 19.206-19.53 32.227-3.91 13.021-5.7 28.158-5.38 45.41l-29.78-19.531c0-35.482 3.42-67.708 10.25-96.68 7.17-29.297 17.26-54.525 30.28-75.683 13.02-21.485 28.81-37.924 47.36-49.317 18.56-11.719 39.39-17.578 62.5-17.578 8.14 0 16.11.488 23.93 1.465 8.13.976 15.3 2.441 21.48 4.394z" mask="url(#a)" stroke="#212121" stroke-width="20"/><path d="M3197.23 817.562c0-9.114-3.1-16.927-9.28-23.437-5.86-6.836-16.28-13.021-31.25-18.555-14.97-5.859-35.97-11.718-62.99-17.578-25.72-5.534-49.97-12.858-72.75-21.972-22.46-9.115-42.16-20.183-59.08-33.204-16.93-13.02-30.28-28.483-40.04-46.386-9.44-17.904-14.16-38.412-14.16-61.524 0-22.461 4.72-43.62 14.16-63.476 9.76-20.183 23.92-37.923 42.48-53.223 18.88-15.625 41.83-27.832 68.84-36.621 27.02-9.115 57.78-13.672 92.29-13.672 47.53 0 88.54 7.324 123.05 21.973 34.5 14.323 61.03 34.505 79.59 60.547 18.88 25.716 28.32 55.501 28.32 89.355h-164.55c0-13.346-2.28-24.74-6.84-34.18-4.23-9.44-11.23-16.601-21-21.484-9.76-5.208-22.78-7.813-39.06-7.813-11.39 0-21.81 2.116-31.25 6.348-9.11 4.232-16.44 10.091-21.97 17.578-5.54 7.487-8.3 16.276-8.3 26.367 0 7.162 1.63 13.672 4.88 19.532 3.58 5.534 8.95 10.742 16.11 15.625 7.17 4.557 16.28 8.789 27.35 12.695 11.07 3.581 24.41 6.836 40.04 9.766 35.48 6.51 68.68 15.787 99.61 27.832 30.92 12.044 55.99 29.134 75.19 51.269 19.53 22.136 29.3 51.921 29.3 89.356 0 23.437-5.37 45.084-16.12 64.941-10.74 19.531-26.2 36.784-46.38 51.758-20.18 14.648-44.44 26.042-72.76 34.18s-60.22 12.207-95.7 12.207c-50.45 0-93.1-8.952-127.93-26.856-34.83-18.229-61.2-41.015-79.1-68.359-17.58-27.669-26.37-55.664-26.37-83.985h153.32c.65 16.276 4.56 29.623 11.72 40.039 7.49 10.417 17.42 18.067 29.79 22.95s26.69 7.324 42.97 7.324c14.97 0 27.34-2.116 37.1-6.348 10.1-4.232 17.75-9.928 22.95-17.09 5.21-7.487 7.82-16.113 7.82-25.879z" mask="url(#a)" stroke="#212121" stroke-width="20"/><path d="M280.586 829.164v-160.41h113.652c21.306 0 37.758 3.667 49.754 10.565l.041.024.042.022c12.077 6.643 20.744 16.073 26.151 28.391l.021.046.021.046c5.816 12.55 8.814 27.589 8.814 45.261 0 14.222-3.084 27.086-9.19 38.687l-.012.023-.011.022c-5.626 10.955-15.034 20.039-28.615 27.141-13.029 6.66-30.862 10.182-53.852 10.182zM578.78 612.011c-6.938-3.835-14.448-7.135-22.523-9.908a146.485 146.485 0 0 0 5.415-2.807l.008-.005.009-.005c29.716-16.36 51.2-37.733 64.095-64.202 12.711-26.09 19.06-54.022 19.06-83.732 0-33.837-6.47-63.465-19.601-88.722-13.104-25.53-32.248-46.662-57.32-63.379-24.694-16.682-54.583-28.933-89.55-36.853-34.954-8.241-74.568-12.336-118.803-12.336H99.199V971h288.203c59.003 0 108.822-7.862 149.292-23.785 40.534-15.948 71.224-39.998 91.732-72.264 20.817-32.237 31.066-72.135 31.066-119.4 0-28.107-6.196-55.05-18.56-80.779-12.559-26.138-33.387-47.037-62.152-62.761zm-220.186-65.562h-78.008V392.387h78.984c25.065 0 45.091 2.9 60.288 8.482l.057.021.058.02c15.382 5.23 26.209 13.53 32.976 24.71 6.863 11.339 10.508 26.625 10.508 46.239 0 16.875-3.59 30.527-10.444 41.254l-.027.042-.026.042c-6.455 10.563-17.006 18.898-32.167 24.785-15.171 5.565-35.822 8.467-62.199 8.467z" fill="#212121" stroke="#fff" stroke-width="10"/></svg>