<svg width="3437" height="1210" viewBox="0 0 3437 1210" fill="none" xmlns="http://www.w3.org/2000/svg">
<path d="M820.469 404.477L647.129 966H463.047L724.277 255.062H840.977L820.469 404.477ZM964.023 966L790.195 404.477L767.734 255.062H885.898L1148.59 966H964.023ZM957.188 700.863V833.188H592.441V700.863H957.188ZM1271.21 550.473V966H1106.66V437.68H1260.96L1271.21 550.473ZM1251.68 683.773L1213.11 684.75C1213.11 644.385 1217.99 608.415 1227.75 576.84C1237.52 544.939 1251.35 517.921 1269.26 495.785C1287.16 473.65 1308.48 456.885 1333.22 445.492C1358.29 433.773 1386.12 427.914 1416.72 427.914C1441.13 427.914 1463.43 431.495 1483.61 438.656C1504.12 445.818 1521.7 457.374 1536.35 473.324C1551.32 489.275 1562.71 510.434 1570.53 536.801C1578.67 562.842 1582.73 595.069 1582.73 633.48V966H1417.21V632.992C1417.21 611.833 1414.28 595.72 1408.42 584.652C1402.56 573.259 1394.1 565.447 1383.03 561.215C1371.96 556.983 1358.45 554.867 1342.5 554.867C1325.57 554.867 1311.25 558.122 1299.53 564.633C1287.81 571.143 1278.37 580.258 1271.21 591.977C1264.38 603.37 1259.33 616.879 1256.07 632.504C1253.14 648.129 1251.68 665.219 1251.68 683.773ZM1917.75 844.906V216H2083.28V966H1934.84L1917.75 844.906ZM1593.54 708.188V697.934C1593.54 657.895 1597.93 621.436 1606.72 588.559C1615.51 555.355 1628.53 526.872 1645.78 503.109C1663.03 479.021 1684.52 460.466 1710.23 447.445C1735.95 434.424 1765.57 427.914 1799.1 427.914C1829.05 427.914 1855.25 434.913 1877.71 448.91C1900.18 462.582 1919.38 481.788 1935.33 506.527C1951.28 531.267 1964.3 560.238 1974.39 593.441C1984.49 626.319 1992.14 661.801 1997.34 699.887V712.094C1992.14 747.901 1984.49 781.755 1974.39 813.656C1964.3 845.232 1951.28 873.227 1935.33 897.641C1919.38 922.055 1900.01 941.26 1877.23 955.258C1854.77 968.93 1828.4 975.766 1798.12 975.766C1764.6 975.766 1734.97 969.092 1709.26 955.746C1683.87 942.4 1662.55 923.682 1645.29 899.594C1628.37 875.505 1615.51 847.185 1606.72 814.633C1597.93 782.081 1593.54 746.599 1593.54 708.188ZM1758.09 697.934V708.188C1758.09 728.044 1759.39 746.436 1761.99 763.363C1764.6 780.29 1768.99 795.264 1775.18 808.285C1781.69 820.98 1790.15 830.909 1800.57 838.07C1811.31 845.232 1824.49 848.812 1840.12 848.812C1861.28 848.812 1878.69 843.767 1892.36 833.676C1906.36 823.585 1916.61 809.262 1923.12 790.707C1929.96 772.152 1932.89 750.342 1931.91 725.277V686.703C1932.57 665.219 1931.1 646.339 1927.52 630.062C1923.94 613.461 1918.24 599.626 1910.43 588.559C1902.94 577.491 1893.34 569.19 1881.62 563.656C1870.23 557.797 1856.72 554.867 1841.09 554.867C1825.79 554.867 1812.77 558.448 1802.03 565.609C1791.61 572.771 1783.15 582.862 1776.64 595.883C1770.13 608.578 1765.41 623.715 1762.48 641.293C1759.55 658.546 1758.09 677.426 1758.09 697.934ZM2372.4 975.766C2329.43 975.766 2291.02 969.092 2257.17 955.746C2223.31 942.074 2194.67 923.357 2171.23 899.594C2148.12 875.831 2130.38 848.487 2118.01 817.562C2105.96 786.638 2099.94 753.923 2099.94 719.418V700.863C2099.94 662.126 2105.31 626.319 2116.05 593.441C2126.8 560.238 2142.75 531.267 2163.91 506.527C2185.07 481.788 2211.6 462.582 2243.5 448.91C2275.4 434.913 2312.51 427.914 2354.82 427.914C2392.26 427.914 2425.79 433.936 2455.41 445.98C2485.03 458.025 2510.1 475.277 2530.61 497.738C2551.44 520.199 2567.23 547.38 2577.97 579.281C2589.04 611.182 2594.57 646.99 2594.57 686.703V753.598H2162.93V650.57H2433.93V637.875C2434.25 620.297 2431.16 605.323 2424.65 592.953C2418.46 580.583 2409.35 571.143 2397.3 564.633C2385.26 558.122 2370.61 554.867 2353.36 554.867C2335.46 554.867 2320.64 558.773 2308.93 566.586C2297.53 574.398 2288.58 585.141 2282.07 598.812C2275.89 612.159 2271.49 627.621 2268.89 645.199C2266.28 662.777 2264.98 681.332 2264.98 700.863V719.418C2264.98 738.949 2267.58 756.69 2272.79 772.641C2278.33 788.591 2286.14 802.263 2296.23 813.656C2306.65 824.724 2319.02 833.35 2333.34 839.535C2347.99 845.72 2364.59 848.812 2383.14 848.812C2405.61 848.812 2427.74 844.581 2449.55 836.117C2471.36 827.654 2490.08 813.656 2505.7 794.125L2580.41 882.992C2569.67 898.292 2554.37 913.103 2534.51 927.426C2514.98 941.749 2491.54 953.467 2464.2 962.582C2436.86 971.371 2406.26 975.766 2372.4 975.766ZM2767.48 568.539V966H2602.93V437.68H2756.74L2767.48 568.539ZM2923.73 433.773L2920.8 586.605C2914.29 585.954 2905.5 585.141 2894.43 584.164C2883.37 583.188 2874.09 582.699 2866.6 582.699C2847.4 582.699 2830.79 584.978 2816.8 589.535C2803.12 593.767 2791.73 600.277 2782.62 609.066C2773.83 617.53 2767.32 628.272 2763.09 641.293C2759.18 654.314 2757.39 669.451 2757.71 686.703L2727.93 667.172C2727.93 631.69 2731.35 599.464 2738.18 570.492C2745.35 541.195 2755.44 515.967 2768.46 494.809C2781.48 473.324 2797.27 456.885 2815.82 445.492C2834.38 433.773 2855.21 427.914 2878.32 427.914C2886.46 427.914 2894.43 428.402 2902.25 429.379C2910.38 430.355 2917.55 431.82 2923.73 433.773ZM3197.23 817.562C3197.23 808.448 3194.13 800.635 3187.95 794.125C3182.09 787.289 3171.67 781.104 3156.7 775.57C3141.73 769.711 3120.73 763.852 3093.71 757.992C3067.99 752.458 3043.74 745.134 3020.96 736.02C2998.5 726.905 2978.8 715.837 2961.88 702.816C2944.95 689.796 2931.6 674.333 2921.84 656.43C2912.4 638.526 2907.68 618.018 2907.68 594.906C2907.68 572.445 2912.4 551.286 2921.84 531.43C2931.6 511.247 2945.76 493.507 2964.32 478.207C2983.2 462.582 3006.15 450.375 3033.16 441.586C3060.18 432.471 3090.94 427.914 3125.45 427.914C3172.98 427.914 3213.99 435.238 3248.5 449.887C3283 464.21 3309.53 484.392 3328.09 510.434C3346.97 536.15 3356.41 565.935 3356.41 599.789H3191.86C3191.86 586.443 3189.58 575.049 3185.02 565.609C3180.79 556.169 3173.79 549.008 3164.02 544.125C3154.26 538.917 3141.24 536.312 3124.96 536.312C3113.57 536.312 3103.15 538.428 3093.71 542.66C3084.6 546.892 3077.27 552.751 3071.74 560.238C3066.2 567.725 3063.44 576.514 3063.44 586.605C3063.44 593.767 3065.07 600.277 3068.32 606.137C3071.9 611.671 3077.27 616.879 3084.43 621.762C3091.6 626.319 3100.71 630.551 3111.78 634.457C3122.85 638.038 3136.19 641.293 3151.82 644.223C3187.3 650.733 3220.5 660.01 3251.43 672.055C3282.35 684.099 3307.42 701.189 3326.62 723.324C3346.15 745.46 3355.92 775.245 3355.92 812.68C3355.92 836.117 3350.55 857.764 3339.8 877.621C3329.06 897.152 3313.6 914.405 3293.42 929.379C3273.24 944.027 3248.98 955.421 3220.66 963.559C3192.34 971.697 3160.44 975.766 3124.96 975.766C3074.51 975.766 3031.86 966.814 2997.03 948.91C2962.2 930.681 2935.83 907.895 2917.93 880.551C2900.35 852.882 2891.56 824.887 2891.56 796.566H3044.88C3045.53 812.842 3049.44 826.189 3056.6 836.605C3064.09 847.022 3074.02 854.672 3086.39 859.555C3098.76 864.438 3113.08 866.879 3129.36 866.879C3144.33 866.879 3156.7 864.763 3166.46 860.531C3176.56 856.299 3184.21 850.603 3189.41 843.441C3194.62 835.954 3197.23 827.328 3197.23 817.562Z" fill="white"/>
<path d="M394.238 663.754H211.133L210.156 551.449H358.594C385.286 551.449 406.608 548.52 422.559 542.66C438.509 536.475 450.065 527.523 457.227 515.805C464.714 504.086 468.457 489.438 468.457 471.859C468.457 451.677 464.714 435.401 457.227 423.031C449.74 410.661 437.858 401.71 421.582 396.176C405.632 390.316 384.961 387.387 359.57 387.387H275.586V966H104.199V255.062H359.57C403.516 255.062 442.741 259.132 477.246 267.27C511.751 275.082 541.048 287.126 565.137 303.402C589.551 319.678 608.105 340.186 620.801 364.926C633.496 389.34 639.844 418.148 639.844 451.352C639.844 480.323 633.659 507.504 621.289 532.895C608.919 558.285 588.249 578.956 559.277 594.906C530.632 610.531 491.406 618.669 441.602 619.32L394.238 663.754ZM387.402 966H169.629L228.223 834.164H387.402C410.84 834.164 429.557 830.583 443.555 823.422C457.878 815.935 468.132 806.169 474.316 794.125C480.827 781.755 484.082 768.083 484.082 753.109C484.082 734.88 480.99 719.092 474.805 705.746C468.945 692.4 459.505 682.146 446.484 674.984C433.464 667.497 416.048 663.754 394.238 663.754H250.195L251.172 551.449H423.535L463.574 596.371C511.1 594.418 548.698 601.091 576.367 616.391C604.362 631.69 624.382 651.872 636.426 676.938C648.47 702.003 654.492 728.207 654.492 755.551C654.492 802.1 644.401 841 624.219 872.25C604.362 903.5 574.577 926.938 534.863 942.562C495.15 958.188 445.996 966 387.402 966Z" fill="#263238"/>
</svg>
