<svg xmlns="http://www.w3.org/2000/svg" viewBox="-4 56.001 520 400"><path fill="#FFF" d="M6.962 266.753C29.552 261.11 60.267 253.43 114.08 252a95.855 95.855 0 0 1-4.02-9.228c-20.94-.182-85.43 2.792-107.52 8.25a1.655 1.655 0 0 1-1.995-1.208 1.664 1.664 0 0 1 1.208-1.995c21.89-5.41 84.825-8.414 107.118-8.356-5.016-14.753-7.232-31.655-7.232-50.523 0-33.515 10.437-46.158 24.46-64.02-10.724-38.196 3.847-64.306 3.847-64.306s22.533-4.67 65.132 25.832c23.09-9.89 84.647-10.714 113.77-2.196 17.88-11.818 50.57-28.585 63.77-23.895 3.57 5.755 11.263 22.513 4.663 59.348 4.488 8.077 27.76 25.286 27.855 73.928-.384 17.94-2.245 33.085-5.698 45.9 55.54-.47 88.212 4.115 110.716 8.26a1.683 1.683 0 0 1 1.323 1.927c-.152.787-.844 1.353-1.61 1.353-.115 0-.21-.01-.326-.02-22.466-4.162-55.194-8.728-111.062-8.22-.98 3.252-2.07 6.34-3.262 9.286 19.013.633 71.233 2.667 113.823 15.692a1.65 1.65 0 0 1 1.093 2.072c-.21.7-.863 1.16-1.573 1.16-.152 0-.325-.02-.48-.076-43.184-13.2-96.537-15.012-114.282-15.598-15.444 33.93-47.118 46.59-98.32 51.855 16.593 10.447 21.352 23.55 21.352 59.004 0 35.453-.48 40.212-.364 48.363.174 13.383 19.78 19.79 19.05 24.096-.728 4.3-16.4 3.607-23.73 1.048-20.757-7.23-18.687-24.5-18.687-24.5l-.69-47.403s1.42-25.516-8-25.516v77.593c0 16.862 11.8 21.985 11.8 28.22 0 10.716-21.563-1.015-28.203-7.702-10.134-10.167-8.98-31.728-8.733-48.784.23-16.47-.152-52.49-.152-52.49l-6.877.146s2.82 78.687-3.626 93.025c-8.336 18.407-33.478 24.74-33.478 16.354 0-5.64 6.196-3.845 9.62-16.487 2.926-10.754 1.93-90.975 1.93-90.975s-8.058 4.768-8.058 19.79c0 6.876-.192 46.157-.192 57.85 0 14.706-20.883 23.08-30.917 23.08-5.084 0-11.405-.25-11.405-2.943 0-6.802 19.1-10.793 19.1-24.94 0-12.27-.27-43.827-.27-43.827s-9.63 1.648-23.367 1.648c-34.628 0-45.583-22.1-50.792-34.465-6.78-16.104-15.577-23.672-24.92-29.717-5.736-3.71-7.06-8.096-.422-9.343 30.657-5.774 38.494 34.764 58.964 41.218 14.61 4.615 33.39 2.62 42.734-3.424 1.238-12.385 10.16-23.09 17.593-28.73-52.068-4.997-82.937-23.078-98.937-52.144-54.466 1.305-85.372 9.036-108.03 14.695-1.65.413-3.26.815-4.814 1.21-.135.027-.27.037-.404.037-.74 0-1.41-.5-1.602-1.247a1.662 1.662 0 0 1 1.21-2.005c1.556-.384 3.158-.775 4.798-1.197z"/></svg>