<svg xmlns="http://www.w3.org/2000/svg" viewBox="-2 100.999 516 310"><path fill="#FFF" d="M409.79 406.812c-53.332-.21-81.748-26.29-101.496-72.25l-5.65-12.54-48.684-111c-16.146-39.293-56.21-65.836-101.417-65.836-61.167 0-110.79 49.625-110.79 110.835 0 61.21 49.622 110.834 110.79 110.834 42.67 0 79.77-24.125 98.29-59.5l19.688 45.416c-27.956 34.084-70.437 55.79-117.977 55.79C68.29 408.56 0 340.31 0 256.02c0-84.252 68.29-152.586 152.54-152.586 63.583 0 114.92 33.96 141 94.125 1.98 4.667 27.58 64.54 49.915 115.5 13.833 31.54 25.63 52.458 63.876 53.75 37.585 1.292 63.38-21.583 63.38-50.503 0-28.25-19.67-35.04-52.876-46.082-59.69-19.667-90.502-39.417-90.502-86.75 0-46.168 31.416-76.96 82.456-76.96 33.25 0 57.253 14.794 73.88 44.294l-32.628 16.665c-12.294-17.207-25.854-24-43.086-24-23.955 0-41.062 16.668-41.062 38.833 0 31.46 28.146 36.21 67.503 49.126C487.375 248.684 512 268.392 512 317.6c0 51.67-44.336 89.296-102.21 89.212z"/></svg>