<svg xmlns="http://www.w3.org/2000/svg" viewBox="-5 0 1046 1000"><path fill="#FFF" d="M0 120c0-33.333 11.667-60.833 35-82.5S88.667 5 126 5c36.667 0 66.333 10.667 89 32 23.333 22 35 50.667 35 86 0 32-11.333 58.667-34 80-23.333 22-54 33-92 33h-1c-36.667 0-66.333-11-89-33S0 153.333 0 120zm13 875V327h222v668H13zm345 0h222V622c0-23.333 2.667-41.333 8-54 9.333-22.667 23.5-41.833 42.5-57.5S673.333 487 702 487c74.667 0 112 50.333 112 151v357h222V612c0-98.667-23.333-173.5-70-224.5S857.667 311 781 311c-86 0-153 37-201 111v2h-1l1-2v-95H358c1.333 21.333 2 87.667 2 199s-.667 267.667-2 469z"/></svg>