<svg xmlns="http://www.w3.org/2000/svg" viewBox="-2.247 -2.311 176 144"><path fill="#FFF" d="M171.505 16.5a70.41 70.41 0 0 1-20.21 5.54c7.266-4.355 12.846-11.25 15.472-19.467a70.474 70.474 0 0 1-22.345 8.538A35.137 35.137 0 0 0 118.74 0C99.306 0 83.55 15.754 83.55 35.186c0 2.758.31 5.443.91 8.02C55.22 41.737 29.293 27.728 11.94 6.44a35.008 35.008 0 0 0-4.766 17.69c0 12.207 6.212 22.977 15.653 29.286a35.071 35.071 0 0 1-15.938-4.4c-.005.146-.005.294-.005.442 0 17.048 12.13 31.27 28.226 34.503a35.136 35.136 0 0 1-9.27 1.234c-2.267 0-4.47-.22-6.62-.63 4.48 13.978 17.473 24.15 32.87 24.434-12.042 9.438-27.213 15.063-43.7 15.063-2.84 0-5.64-.166-8.393-.49 15.572 9.983 34.067 15.81 53.938 15.81 64.72 0 100.113-53.616 100.113-100.115 0-1.525-.034-3.043-.102-4.553a71.486 71.486 0 0 0 17.56-18.213z"/></svg>