<svg width="191" height="191" fill="none" xmlns="http://www.w3.org/2000/svg"><path d="m148.31 190.5-105.834.101C19.193 190.622.127 171.593.101 148.31L0 42.476C-.021 19.193 19.008.127 42.291.101L148.124 0c23.284-.021 42.35 19.008 42.376 42.291l.101 105.833c.026 23.289-19.008 42.355-42.291 42.376Z" fill="url(#a)"/><path d="m148.31 190.5-105.834.101C19.193 190.622.127 171.593.101 148.31L0 42.476C-.021 19.193 19.008.127 42.291.101L148.124 0c23.284-.021 42.35 19.008 42.376 42.291l.101 105.833c.026 23.289-19.008 42.355-42.291 42.376Z" fill="url(#b)"/><path d="M95.303 132.345c-20.42 0-37.042-16.616-37.042-37.042 0-20.426 16.621-37.042 37.042-37.042 20.42 0 37.042 16.616 37.042 37.042 0 20.426-16.622 37.042-37.042 37.042Zm0-63.5c-14.59 0-26.458 11.869-26.458 26.458 0 14.589 11.869 26.458 26.458 26.458 14.589 0 26.458-11.869 26.458-26.458 0-14.59-11.869-26.458-26.458-26.458ZM134.99 63.553a7.938 7.938 0 1 0 0-15.876 7.938 7.938 0 0 0 0 15.876Z" fill="#fff"/><path d="M127.053 164.095h-63.5c-20.42 0-37.042-16.616-37.042-37.042v-63.5c0-20.426 16.621-37.042 37.042-37.042h63.5c20.42 0 37.042 16.616 37.042 37.042v63.5c0 20.426-16.622 37.042-37.042 37.042Zm-63.5-127c-14.59 0-26.458 11.869-26.458 26.458v63.5c0 14.589 11.869 26.458 26.458 26.458h63.5c14.589 0 26.458-11.869 26.458-26.458v-63.5c0-14.59-11.869-26.458-26.458-26.458h-63.5Z" fill="#fff"/><defs><radialGradient id="a" cx="0" cy="0" r="1" gradientUnits="userSpaceOnUse" gradientTransform="translate(70.855 190.738) scale(237.591)"><stop stop-color="#FD5"/><stop offset=".328" stop-color="#FF543F"/><stop offset=".348" stop-color="#FC5245"/><stop offset=".504" stop-color="#E64771"/><stop offset=".643" stop-color="#D53E91"/><stop offset=".761" stop-color="#CC39A4"/><stop offset=".841" stop-color="#C837AB"/></radialGradient><radialGradient id="b" cx="0" cy="0" r="1" gradientUnits="userSpaceOnUse" gradientTransform="matrix(157.76 0 0 105.116 30.67 -2.38)"><stop stop-color="#4168C9"/><stop offset=".999" stop-color="#4168C9" stop-opacity="0"/></radialGradient></defs></svg>