<svg width="462" height="115" fill="none" xmlns="http://www.w3.org/2000/svg"><path d="M.938 75.762H23.85l3.32-10.183h23.243l3.21 10.183h23.354L50.412 1.94H27.17L.938 75.762ZM32.372 49.42l6.53-21.14 6.53 21.14h-13.06ZM83.487 75.762h22.136V55.73l-.111-7.858c-.111-6.641 0-7.637-.221-11.29l22.8 39.181h21.361V1.94h-22.136v19.258l.111 8.3c.11 4.317 0 6.642.221 10.737L105.069 1.939H83.487v73.823ZM163.903 75.762h31.433c13.835 0 23.132-3.763 29.883-12.064 5.092-6.42 7.637-14.388 7.637-24.35 0-11.178-3.32-20.586-9.518-27.448-6.641-7.305-14.499-9.961-28.998-9.961h-30.437v73.823Zm22.136-18.483V20.422h7.194c6.53 0 10.625 1.66 13.614 5.645 2.545 3.541 3.873 8.08 3.873 13.503 0 11.732-5.644 17.709-16.823 17.709h-7.858ZM244.859 75.762h63.973v-19.59h-41.837v-9.85h35.086V29.386h-35.086v-8.965h40.066V1.94h-62.202v73.823ZM320.087 75.762h22.136V49.974h9.297c8.965 0 11.732 3.099 12.728 14.277l.443 5.202c.332 3.874.553 4.649 1.549 6.31h22.358c-1.107-1.883-1.328-2.768-1.771-6.31l-1.439-12.175c-.996-8.3-4.095-12.949-10.293-15.827 7.305-4.095 10.846-10.072 10.846-18.373 0-7.304-3.209-13.724-8.633-17.155-4.98-3.099-9.961-3.984-22.689-3.984h-34.532v73.823Zm22.136-42.058V18.873h11.289c7.084 0 10.293 2.324 10.293 7.415s-3.209 7.416-10.293 7.416h-11.289ZM423.885 25.513c-2.878-.885-4.206-1.992-4.206-3.873 0-2.546 3.32-4.428 7.748-4.428 4.648 0 7.636 2.214 8.965 6.641h21.25c-.443-6.42-1.66-9.85-4.538-13.724-4.87-6.309-13.613-9.85-25.235-9.85-18.041 0-30.326 9.186-30.326 22.8 0 4.537 1.549 8.965 4.316 12.396 3.21 3.873 7.748 6.53 15.938 9.075l14.61 4.538c4.649 1.439 6.309 2.767 6.309 4.98 0 3.21-4.095 5.646-9.74 5.646-6.862 0-10.957-3.1-11.179-8.634h-22.689c.553 7.305 2.214 11.622 5.977 15.828 5.976 6.751 15.827 10.514 27.448 10.514 19.591 0 32.651-10.182 32.651-25.345 0-11.511-6.309-17.488-23.243-22.468l-14.056-4.096ZM14.871 101.242c-.346 2.234-1.51 3.429-3.397 3.429-2.39 0-4.183-2.485-4.183-5.788 0-3.334 1.667-5.63 4.089-5.63 1.793 0 3.145 1.164 3.491 2.988l6.26-.126C20.219 91.114 16.538 88 11.506 88 5.436 88 1 92.56 1 98.789c0 6.479 4.404 11.135 10.569 11.135 3.302 0 6.26-1.384 7.989-3.743 1.007-1.384 1.51-2.8 1.73-4.939h-6.417ZM24.026 109.452h6.291v-7.329h2.642c2.548 0 3.334.881 3.617 4.058l.126 1.478c.095 1.101.158 1.321.44 1.793h6.354c-.314-.535-.377-.787-.503-1.793l-.409-3.46c-.283-2.359-1.164-3.68-2.925-4.498 2.076-1.164 3.083-2.862 3.083-5.221 0-2.076-.913-3.9-2.454-4.876-1.415-.88-2.83-1.132-6.448-1.132h-9.814v20.98Zm6.291-11.953v-4.215h3.209c2.012 0 2.925.66 2.925 2.108 0 1.447-.913 2.107-2.925 2.107h-3.209ZM43.97 109.452h6.511l.944-2.894h6.605l.912 2.894h6.637l-7.549-20.98h-6.605l-7.455 20.98Zm8.933-7.486 1.856-6.008 1.856 6.008h-3.712ZM67.43 109.452h6.29v-5.693l-.031-2.234c-.031-1.887 0-2.17-.063-3.208l6.48 11.135h6.07v-20.98h-6.29v5.473l.03 2.359c.032 1.227 0 1.887.064 3.051l-6.417-10.883H67.43v20.98ZM90.283 109.452h18.181v-5.568h-11.89v-2.799h9.971v-4.813h-9.971v-2.547h11.386v-5.253H90.283v20.98ZM128.075 95.172c-.818-.252-1.195-.567-1.195-1.101 0-.724.943-1.258 2.202-1.258 1.321 0 2.17.629 2.547 1.887h6.04c-.126-1.825-.472-2.8-1.29-3.9-1.384-1.793-3.869-2.8-7.172-2.8-5.127 0-8.618 2.61-8.618 6.48 0 1.29.44 2.547 1.227 3.522.912 1.101 2.202 1.856 4.529 2.58l4.152 1.289c1.321.409 1.793.787 1.793 1.416 0 .912-1.164 1.604-2.768 1.604-1.95 0-3.114-.881-3.177-2.453h-6.448c.157 2.076.629 3.302 1.699 4.497 1.698 1.919 4.498 2.989 7.8 2.989 5.568 0 9.279-2.894 9.279-7.203 0-3.272-1.793-4.97-6.605-6.386l-3.995-1.163ZM141.765 109.452h18.18v-5.568h-11.889v-2.799h9.971v-4.813h-9.971v-2.547h11.386v-5.253h-17.677v20.98ZM163.144 109.452h6.291v-7.329h2.642c2.548 0 3.334.881 3.617 4.058l.126 1.478c.094 1.101.157 1.321.44 1.793h6.354c-.314-.535-.377-.787-.503-1.793l-.409-3.46c-.283-2.359-1.164-3.68-2.925-4.498 2.076-1.164 3.082-2.862 3.082-5.221 0-2.076-.912-3.9-2.453-4.876-1.416-.88-2.831-1.132-6.448-1.132h-9.814v20.98Zm6.291-11.953v-4.215h3.208c2.013 0 2.925.66 2.925 2.108 0 1.447-.912 2.107-2.925 2.107h-3.208ZM189.473 109.452h7.014l6.354-20.98h-6.354l-2.044 7.706c-.661 2.454-.661 2.485-1.353 5.882-.283-1.667-.849-4.152-1.321-5.882l-2.076-7.706h-6.605l6.385 20.98ZM204.767 109.452h6.511v-20.98h-6.511v20.98ZM228.601 101.242c-.346 2.234-1.51 3.429-3.397 3.429-2.391 0-4.184-2.485-4.184-5.788 0-3.334 1.667-5.63 4.089-5.63 1.793 0 3.146 1.164 3.492 2.988l6.259-.126c-.912-5.001-4.592-8.115-9.625-8.115-6.07 0-10.505 4.56-10.505 10.789 0 6.479 4.403 11.135 10.568 11.135 3.303 0 6.26-1.384 7.99-3.743 1.006-1.384 1.509-2.8 1.73-4.939h-6.417ZM237.756 109.452h18.18v-5.568h-11.889v-2.799h9.971v-4.813h-9.971v-2.547h11.386v-5.253h-17.677v20.98ZM288.046 109.452h15.853v-5.568h-9.342V88.472h-6.511v20.98ZM304.212 109.452h6.511l.944-2.894h6.605l.912 2.894h6.637l-7.549-20.98h-6.605l-7.455 20.98Zm8.933-7.486 1.856-6.008 1.856 6.008h-3.712ZM327.671 109.452h5.757v-6.574c0-4.624-.032-4.687-.063-6.228l3.082 12.802h4.907l3.083-12.802c-.032 1.321-.032 1.478-.032 2.17l-.031 1.573v9.059h5.756v-20.98h-8.461l-2.768 11.26-2.768-11.26h-8.462v20.98ZM353.608 98.946c0 6.511 4.404 10.978 10.789 10.978 6.354 0 10.82-4.467 10.82-10.82 0-6.669-4.34-11.104-10.82-11.104-6.385 0-10.789 4.498-10.789 10.946Zm10.789 5.725c-2.579 0-4.278-2.233-4.278-5.725 0-3.46 1.699-5.693 4.278-5.693 2.642 0 4.309 2.233 4.309 5.756 0 3.429-1.698 5.662-4.309 5.662ZM378.693 109.452h6.29v-5.693l-.031-2.234c-.032-1.887 0-2.17-.063-3.208l6.48 11.135h6.07v-20.98h-6.291v5.473l.032 2.359c.031 1.227 0 1.887.063 3.051l-6.417-10.883h-6.133v20.98ZM401.916 109.452h6.511v-20.98h-6.511v20.98ZM412.227 109.452h2.611c-.094 1.51-1.132 2.611-2.611 2.705v2.579c1.542-.063 2.611-.346 3.586-.975 1.793-1.101 2.485-2.642 2.485-5.473v-4.907h-6.071v6.071ZM431.527 109.452h6.511v-20.98h-6.511v20.98ZM439.92 109.452h6.511l.944-2.894h6.605l.912 2.894h6.637l-7.549-20.98h-6.605l-7.455 20.98Zm8.933-7.486 1.856-6.008 1.856 6.008h-3.712Z" fill="#000"/></svg>