<svg width="2681" height="521" viewBox="0 0 2681 521" fill="none" xmlns="http://www.w3.org/2000/svg"><path d="M1269.58 26.784h-53.57v363.072h53.57V26.784Z" fill="#34A853"/><path d="M527.065 151.776c-68.448 0-123.504 52.08-123.504 124.992 0 71.424 55.056 124.992 123.504 124.992 68.448 0 123.504-52.08 123.504-124.992 1.488-71.424-55.056-124.992-123.504-124.992Zm0 200.88c-37.2 0-69.936-31.248-69.936-75.888s32.736-75.888 69.936-75.888c37.2 0 69.936 31.248 69.936 75.888s-31.248 75.888-69.936 75.888Z" fill="#EA4335"/><path d="M799.368 153.264c-68.448 0-123.504 52.08-123.504 124.992 0 71.424 55.056 124.992 123.504 124.992 68.448 0 123.504-52.08 123.504-124.992s-55.056-124.992-123.504-124.992Zm0 199.392c-37.2 0-69.936-31.248-69.936-75.888s32.736-75.888 69.936-75.888c37.2 0 69.936 31.248 69.936 75.888s-32.736 75.888-69.936 75.888Z" fill="#FBBC05"/><path d="M1132.68 180.048h-1.49c-11.9-14.88-35.71-28.272-65.47-28.272-62.5 0-119.039 55.056-119.039 124.992s56.539 123.504 119.039 123.504c29.76 0 53.57-13.392 65.47-28.272h1.49v17.856c0 47.616-25.3 72.912-66.96 72.912-32.74 0-53.57-23.808-62.5-44.64l-47.611 19.344c13.392 32.736 50.591 72.912 110.111 72.912 63.98 0 117.55-37.2 117.55-129.456V162.192h-50.59v17.856Zm-63.98 172.608c-37.2 0-68.45-31.248-68.45-74.4s31.25-75.888 68.45-75.888 66.96 31.248 66.96 75.888c0 43.152-29.76 74.4-66.96 74.4Zm-772.276-44.64c14.881-14.88 25.297-37.2 28.273-69.936h-126.48V186h177.071c1.488 8.928 2.976 22.32 2.976 34.224 0 40.176-10.415 89.28-46.127 123.504-34.224 35.712-77.376 55.056-135.408 55.056C89.592 398.784.312 312.48.312 205.344s89.28-193.44 196.417-193.44c59.52 0 101.184 23.808 132.432 53.568l-37.2 37.2c-22.32-20.832-53.568-37.2-95.232-37.2-77.376 0-138.385 62.496-138.385 141.36s61.009 141.36 138.385 141.36c53.568-1.488 81.839-20.832 99.695-40.176Z" fill="#4285F4"/><path d="M1419.86 352.656c-28.27 0-47.61-13.392-59.52-37.2L1527 247.008l-5.95-13.392c-10.42-28.272-41.67-78.864-105.65-78.864-63.98 0-117.55 50.592-117.55 124.992 0 69.936 52.08 124.992 123.5 124.992 56.55 0 89.28-34.224 104.16-55.056l-41.66-28.272c-16.37 17.856-35.71 31.248-63.99 31.248Zm-4.46-151.776c22.32 0 40.18 10.416 46.13 26.784l-111.6 46.128c0-49.104 37.2-72.912 65.47-72.912Z" fill="#EA4335"/><path opacity=".54" d="M1732.34 397.296c50.6 0 110.12-28.272 110.12-95.232 0-66.96-52.08-90.768-108.63-108.624-38.69-11.904-62.49-28.272-62.49-53.568 0-28.272 26.78-47.616 59.52-47.616 38.68 0 58.03 25.296 62.49 43.152l38.69-16.368c-8.93-26.784-40.18-66.96-102.67-66.96-62.5 0-102.67 43.152-102.67 87.792 0 47.616 32.73 74.4 89.28 92.256 52.08 16.368 81.84 31.248 81.84 71.424 0 35.712-32.74 53.568-66.96 53.568-37.2 0-66.96-29.76-77.38-65.472l-38.69 16.368c17.86 61.008 74.4 89.28 117.55 89.28Zm254.45-2.976c14.88 0 25.3-1.488 34.23-5.952l-14.88-37.2c-5.96 2.976-11.91 2.976-19.35 2.976-19.34 0-31.25-11.904-31.25-37.2V200.88h55.06v-38.688h-55.06V92.256h-43.15v69.936h-40.17v38.688h40.17v119.04c0 47.616 26.79 74.4 74.4 74.4Zm166.66-238.08c-68.45 0-116.06 52.08-116.06 120.528 0 68.448 49.1 120.528 116.06 120.528 68.45 0 116.06-52.08 116.06-120.528 1.49-69.936-47.61-120.528-116.06-120.528Zm0 202.368c-38.69 0-74.4-29.76-74.4-81.84s35.71-81.84 74.4-81.84c38.69 0 74.4 29.76 74.4 81.84s-35.71 81.84-74.4 81.84Zm193.44 31.248V266.352c0-41.664 29.76-66.96 59.52-66.96 8.93 0 16.37 1.488 22.32 2.976l16.37-40.176c-8.93-2.976-17.86-5.952-31.25-5.952-23.81 0-56.55 16.368-65.47 43.152h-1.49v-37.2h-40.18v227.664h40.18Zm220.22 7.44c52.08 0 86.31-29.76 99.7-62.496l-38.69-16.368c-11.9 28.272-37.2 38.688-62.5 38.688-35.71 0-69.93-25.296-72.91-74.4h180.05v-7.44c0-72.912-43.15-120.528-111.6-120.528-66.96 0-111.6 56.544-111.6 120.528 1.49 69.936 47.62 122.016 117.55 122.016Zm61.01-148.8h-130.94c8.92-32.736 32.73-55.056 65.47-55.056 46.13 1.488 63.98 35.712 65.47 55.056Z" fill="#000"/></svg>