<svg xmlns="http://www.w3.org/2000/svg" viewBox="0 0 200 200" style="enable-background:new 0 0 200 200" xml:space="preserve"><style>.st1{fill:#ea4335}</style><g id="logo"><path style="fill:#34a853" d="M91.6 84.3h3.6v24.4h-3.6z"/><path class="st1" d="M45.3 92.7c-4.6 0-8.3 3.5-8.3 8.4 0 4.8 3.7 8.4 8.3 8.4s8.3-3.5 8.3-8.4c.1-4.8-3.7-8.4-8.3-8.4zm0 13.5c-2.5 0-4.7-2.1-4.7-5.1 0-3 2.2-5.1 4.7-5.1s4.7 2.1 4.7 5.1c0 3-2.1 5.1-4.7 5.1z"/><path d="M63.6 92.8c-4.6 0-8.3 3.5-8.3 8.4 0 4.8 3.7 8.4 8.3 8.4s8.3-3.5 8.3-8.4-3.7-8.4-8.3-8.4zm0 13.4c-2.5 0-4.7-2.1-4.7-5.1 0-3 2.2-5.1 4.7-5.1s4.7 2.1 4.7 5.1c0 3-2.2 5.1-4.7 5.1z" style="fill:#fbbc05"/><path d="M86 94.6h-.1c-.8-1-2.4-1.9-4.4-1.9-4.2 0-8 3.7-8 8.4s3.8 8.3 8 8.3c2 0 3.6-.9 4.4-1.9h.1v1.2c0 3.2-1.7 4.9-4.5 4.9-2.2 0-3.6-1.6-4.2-3l-3.2 1.3c.9 2.2 3.4 4.9 7.4 4.9 4.3 0 7.9-2.5 7.9-8.7V93.4H86v1.2zm-4.3 11.6c-2.5 0-4.6-2.1-4.6-5s2.1-5.1 4.6-5.1c2.5 0 4.5 2.1 4.5 5.1 0 2.9-2 5-4.5 5zm-51.9-3c1-1 1.7-2.5 1.9-4.7h-8.5V95h11.9c.1.6.2 1.5.2 2.3 0 2.7-.7 6-3.1 8.3-2.3 2.4-5.2 3.7-9.1 3.7-7.2 0-13.2-5.8-13.2-13s6-13 13.2-13c4 0 6.8 1.6 8.9 3.6l-2.5 2.5c-1.5-1.4-3.6-2.5-6.4-2.5-5.2 0-9.3 4.2-9.3 9.5s4.1 9.5 9.3 9.5c3.6-.1 5.5-1.4 6.7-2.7z" style="fill:#4285f4"/><path class="st1" d="M105.3 106.2c-1.9 0-3.2-.9-4-2.5l11.2-4.6-.4-.9c-.7-1.9-2.8-5.3-7.1-5.3s-7.9 3.4-7.9 8.4c0 4.7 3.5 8.4 8.3 8.4 3.8 0 6-2.3 7-3.7l-2.8-1.9c-1.1 1.2-2.4 2.1-4.3 2.1zM105 96c1.5 0 2.7.7 3.1 1.8l-7.5 3.1c0-3.3 2.5-4.9 4.4-4.9z"/><path d="M126.3 109.2c3.4 0 7.4-1.9 7.4-6.4s-3.5-6.1-7.3-7.3c-2.6-.8-4.2-1.9-4.2-3.6 0-1.9 1.8-3.2 4-3.2 2.6 0 3.9 1.7 4.2 2.9l2.6-1.1c-.6-1.8-2.7-4.5-6.9-4.5s-6.9 2.9-6.9 5.9c0 3.2 2.2 5 6 6.2 3.5 1.1 5.5 2.1 5.5 4.8 0 2.4-2.2 3.6-4.5 3.6-2.5 0-4.5-2-5.2-4.4l-2.6 1.1c1.2 4.1 5 6 7.9 6zm17.1-.2c1 0 1.7-.1 2.3-.4l-1-2.5c-.4.2-.8.2-1.3.2-1.3 0-2.1-.8-2.1-2.5V96h3.7v-2.6h-3.7v-4.7h-2.9v4.7h-2.7V96h2.7v8c0 3.2 1.8 5 5 5zm11.2-16c-4.6 0-7.8 3.5-7.8 8.1s3.3 8.1 7.8 8.1c4.6 0 7.8-3.5 7.8-8.1.1-4.7-3.2-8.1-7.8-8.1zm0 13.6c-2.6 0-5-2-5-5.5s2.4-5.5 5-5.5 5 2 5 5.5-2.4 5.5-5 5.5zm13 2.1v-8.3c0-2.8 2-4.5 4-4.5.6 0 1.1.1 1.5.2l1.1-2.7c-.6-.2-1.2-.4-2.1-.4-1.6 0-3.8 1.1-4.4 2.9h-.1v-2.5h-2.7v15.3h2.7zm14.8.5c3.5 0 5.8-2 6.7-4.2l-2.6-1.1c-.8 1.9-2.5 2.6-4.2 2.6-2.4 0-4.7-1.7-4.9-5h12.1v-.5c0-4.9-2.9-8.1-7.5-8.1-4.5 0-7.5 3.8-7.5 8.1.1 4.7 3.2 8.2 7.9 8.2zm4.1-10h-8.8c.6-2.2 2.2-3.7 4.4-3.7 3.1.1 4.3 2.4 4.4 3.7z" style="opacity:.54;enable-background:new"/><path style="fill:none" d="M10 82.5h180v35H10z"/></g></svg>