<svg width="972" height="280" fill="none" xmlns="http://www.w3.org/2000/svg"><path fill="#00AFD8" d="M0 0h971v280H0z"/><path d="M971.213 93.51v-41.8h-34.3V2.91h-41.8v48.8h-84.3c-38.9 0-67.4 26.2-67.4 62.2 0 4.1.6 8.1 1.2 12.2-12.8-45.3-48.2-74.4-95.3-74.4-57.5 0-101.7 44.8-105.2 105.2v-12.8c0-51.1-41.3-92.4-92.4-92.4-51.1 0-92.5 41.8-92.5 93v132.5h42.4v-132.5c0-27.9 22.7-50 50-50 27.9 0 50 22.7 50 50v132.5h42.4v-103.5c3.5 61 48.2 105.8 106.4 105.8 35.5 0 66.8-20.9 84.9-44.8 13.4 28.5 38.9 44.8 70.9 44.8 37.2 0 74.4-23.8 74.4-69.2 0-27.3-15.7-49.4-44.2-62.2-3.5-1.7-6.4-2.9-9.3-4.6h-.6c-3.5-1.7-6.4-2.9-9.9-4.6-18-8.1-27.3-14.5-27.3-26.7 0-11 9.9-18.6 21.5-18.6h84.3v118c0 37.8 30.8 68 68 68v-41.8c-14.5 0-26.2-11.6-26.2-26.2v-118c16.9-.1 30.2-.1 34.3-.1Zm-322-.5c33.1 0 48.8 22.7 53.5 45.9h-109.3c5.8-23.9 26.2-45.9 55.8-45.9Zm167.4 95.9c11.6 5.2 18.6 14.5 18.6 25.6 0 14.5-11 22.7-29.6 22.7-19.8 0-28.5-17.4-30.8-22.7l-2.9-6.4h-71c-9.3 15.7-27.9 29.6-50 29.6-39.5 0-58.7-30.8-61.6-61h160.4v-6.4c0-12.8-1.2-24.4-3.5-35.5 4.6 13.9 15.1 28.5 37.2 38.9 8.8 4.1 20.4 9.9 33.2 15.2Zm-636.292 1.089c0-17.577-14.492-32.085-32.051-32.085-17.837 0-32.051 14.229-32.051 32.085v83.421h64.102v-83.421Z" fill="#fff"/><path d="M244.144 79.515V35.433h-30.657v18.693L147.713 0 0 121.923l24.805 29.853 26.755-22.041V273.42h37.346v-83.421c0-32.643 26.477-59.148 59.364-59.148 32.609 0 59.364 26.505 59.364 59.148v83.421h36.789V129.735l26.756 22.041 24.804-29.853-51.839-42.408Z" fill="#fff"/></svg>