<svg width="1180" height="402" fill="none" xmlns="http://www.w3.org/2000/svg"><path d="M206.5 63.753h-5.9l-13.57 16.529c-8.26-5.903-25.96-16.53-49.56-16.53-47.2 0-74.34 40.732-74.34 80.873 0 23.022 8.85 41.912 26.55 54.309 11.21 8.264 25.96 12.396 43.66 16.528l15.34 4.132c20.65 5.903 51.92 13.577 51.92 51.947 0 31.877-19.47 58.441-57.82 58.441-34.22 0-52.51-22.432-58.41-30.106-11.21-15.348-13.57-30.105-16.52-46.044H56.64L59 336.475h8.85l14.16-19.48c17.11 15.939 36.58 24.203 60.18 24.203 52.51 0 80.24-44.273 80.24-92.088 0-60.212-42.48-71.428-68.44-79.102l-14.16-3.541c-31.86-8.855-54.87-14.758-54.87-44.274 0-33.057 28.32-48.405 51.92-48.405 14.16 0 28.91 5.313 40.71 15.939 15.34 14.167 18.29 28.334 21.24 44.273h10.03l-2.36-70.247Z" fill="#000"/><path d="M501.5 76.15v-7.674h-79.06l-59.59 197.163-60.18-197.163h-83.19v7.674h33.04V328.21h-31.86v7.674h75.52v-7.674h-34.81V80.872l79.65 255.013h10.03l77.29-252.061V328.21h-34.81v7.674h110.92v-7.674h-35.4V76.15h32.45ZM633.07 76.15v-7.674H522.74v7.674h33.04V328.21h-32.45v7.674h109.74v-7.674h-33.04V76.15h33.04ZM810.66 328.211h-36.58V76.15h10.03c19.47 0 32.45-.59 47.2 13.577 10.62 8.854 24.19 44.863 28.91 63.163h5.9l-5.9-84.414H643.1l-3.54 84.414h7.08c2.95-18.3 12.98-52.538 30.09-66.115 11.8-10.035 21.24-10.035 43.66-10.035h10.62v252.062h-38.35v7.674h118.59v-8.265h-.59Z" fill="#000"/><path d="M1046.07 204.247v123.964h-33.63v7.674h110.33v-7.674h-33.04V76.15h31.86v-7.674h-110.33v7.674h34.81V193.62H940.46V76.15h33.04v-7.674H862.58v7.674h33.04V328.21h-32.45v7.674h111.51v-7.674h-34.22V204.247h105.61Z" fill="#000"/><path d="M0 402V0h1180v402H0Zm24.19-24.203H1156.4V23.612H24.19v354.185Z" fill="#000"/></svg>